<?xml version="1.0" encoding="UTF-8"?>
<svg id="Layer_2" data-name="Layer 2" xmlns="http://www.w3.org/2000/svg" viewBox="0 0 25.8 79">
  <defs>
    <style>
      .cls-1 {
        fill: #f04f6e;
      }
    </style>
  </defs>
  <g id="Layer_1-2" data-name="Layer 1">
    <path class="cls-1" d="M12.8,68.3h.6c7.8,0,12.4-4.1,12.4-18.6S19.3,0,11.5,0,0,33,0,47.5s4.9,19.9,11.9,20.7v10.3c0,.28.22.5.5.5h0c.28,0,.5-.22.5-.5v-.2h0l.2-6.3v-3.7h-1.2l.6-17c0-.2.3-.4.6-.4.24.05.4.26.4.5l-.6,16.7q0,.1-.1.2Z"/>
  </g>
</svg>