<?xml version="1.0" encoding="UTF-8"?>
<svg id="Layer_2" data-name="Layer 2" xmlns="http://www.w3.org/2000/svg" viewBox="0 0 61.76 75.97">
  <defs>
    <style>
      .cls-1 {
        fill: #010101;
      }
    </style>
  </defs>
  <g id="Layer_1-2" data-name="Layer 1">
    <g>
      <path class="cls-1" d="M61.12,16.1c-.28-.62-.92-.97-1.16-1.58-.52-1.34-1.54-2.43-2.85-3.04-.62-.3-1.22-.63-1.85-.89-.8-.33-1.74-.42-2.2-1.32-.01-.02-.05-.03-.07-.04-1.21-.52-2.28-1.33-3.54-1.75-1.32-.54-2.7-.95-4.1-1.22-.23-.03-.45-.1-.65-.2-1.37-.7-2.66-1.56-3.84-2.55-.95-.94-1.98-1.81-3.07-2.58-1.01-.74-2.26-1.05-3.49-.89-1.43.29-2.82.76-4.13,1.39-1.25.62-2.62,1-4.01,1.11-1.66.07-3.31.24-4.94.52-.88.23-1.78.41-2.68.54-1.24.21-2.5.32-3.75.34-.32.02-.63.08-.93.18-2.12.57-4.24,1.15-6.36,1.7-.78.16-1.49.57-2.03,1.17-.72.93-1.52,1.79-2.38,2.58-1.04.83-1.66,2.07-1.72,3.4-.01,1.14-.3,2.26-.84,3.27-.09.18-.17.36-.24.55-.34.82-.37,1.74-.09,2.59.29.99.8,1.91,1.5,2.68.36.44.7.91,1,1.39.64.92,1.02,1.98,1.59,2.93.38.71.99,1.26,1.74,1.55.6.19,1.12.57,1.49,1.09.33.39.73.72,1.18.97.87.5,1.79.89,2.75,1.17.6.3,1.27.41,1.93.34,1.14-.1,2.29.07,3.35.5.49.13.63.49.45.98-.08.27-.13.56-.13.84-.02.4.07.8.24,1.17.15.35.54.25.83.32.26.07.31.2.22.44-.19.72-.31,1.45-.36,2.19-.33,1.72-.36,3.48-.11,5.21.23,1.38.36,2.77.38,4.17-.02.37,0,.74.05,1.11.31,2.01.08,4.07-.66,5.97-.6,1.67-1.3,3.3-2.1,4.88-.51,1.09-1.2,2.09-2.03,2.96-1.29,1.22-2.35,2.66-3.13,4.25-.4.79-.65,1.65-.73,2.53-.03,1.86.75,3.63,2.13,4.87.54.55,1.2.97,1.93,1.24.76.29,1.55.37,2.3.65.48.18,1.01.22,1.51.11.39-.06.79-.1,1.19-.12,1.14.03,2.28-.07,3.39-.29,1.02-.21,1.97-.65,2.78-1.3,1.92-1.72,3.36-3.93,4.15-6.39.65-1.92,1.34-3.82,2.03-5.73.16-.4.29-.81.4-1.22.2-.78.44-1.54.72-2.29.44-1.09.71-2.24.81-3.41.14-3.06.07-6.12-.22-9.17-.08-.89-.34-1.76-.35-2.63-.11-1.37-.44-2.71-.98-3.97-.18-.39-.29-.81-.33-1.23,0-.52-.14-1.02-.39-1.47-.51-.97-.4-1.17.65-1.42.08-.02.17,0,.26-.03.47-.08.8-.5.76-.98-.03-.66,0-1.33.1-1.98,1.19.37,2.46.45,3.69.22.29-.03.58,0,.84.12,1.48.46,3.07.46,4.56,0,.49-.17,1.02-.17,1.5.02,1,.37,2.1.35,3.09-.05,1.58-.51,3.21-.83,4.86-.96.63-.01,1.25-.1,1.86-.27,1.08-.36,1.92-1.22,2.26-2.31.41-1.26,1.23-2.35,2.33-3.08.16-.12.31-.25.44-.4.7-.71,1.13-1.65,1.87-2.33.11-.13.2-.28.26-.44.42-.81.83-1.63,1.26-2.44.64-1.36.56-2.95-.21-4.25ZM2.96,10.42c.97-1.05,2-2.03,2.89-3.15.42-.52,1.02-.85,1.69-.92.17-.01.34-.05.5-.1,2.01-.73,4.12-1.12,6.18-1.69.3-.08.62-.12.93-.11,1.92-.03,3.82-.3,5.67-.82.84-.18,1.69-.31,2.54-.39,1.54-.06,3.08-.23,4.59-.51.87-.2,1.7-.5,2.49-.91.17-.1.35-.18.54-.25.92-.31,1.84-.62,2.76-.89,1.41-.38,2.92,0,3.98,1,.46.38.92.77,1.39,1.14.59.45,1.13.97,1.72,1.41,1.5,1.33,3.31,2.26,5.27,2.69.44.1.87.25,1.28.45.07.03.18.12.17.16-.17.66.47.6.75.84.97.75,2.07,1.33,3.23,1.73.12.05.23.19.42,0-.53-.41-1.12-.74-1.75-.98-.65-.35-1.27-.77-1.84-1.23.73.03,1.45.24,2.08.6.5.21.96.52,1.45.74.37.15.7.4.93.72.24.36.62.62,1.04.7,1.38.37,2.68.98,3.86,1.79.32.18.57.46.73.79-.18.06-.38.03-.53-.08-1.12-.5-2.34-.77-3.57-.79-.03,0-.06,0-.08,0-.96.25-1.98-.02-2.69-.71-.54-.31-1.13-.52-1.74-.61-1.47-.37-2.99-.44-4.45-.86-.35-.11-.67-.31-.91-.59-1.11-1.11-2.36-2.07-3.73-2.83-.75-.37-1.57-.57-2.41-.57-1.08-.09-2.15-.28-3.2-.56-.25-.06-.49-.17-.69-.33-.71-.59-1.63-.89-2.55-.83-1.25-.09-2.51-.07-3.76.05-.03-.06-.04-.12-.05-.18.01-.1.12-.21,0-.31-.08-.06-.19-.06-.25.02-.01.02-.02.03-.03.05-.25.46-.71.51-1.15.63-1.63.29-3.23.75-4.76,1.38-.53.23-1.12.29-1.69.16-.4-.05-.8-.02-1.19.08-2.22.55-4.51.76-6.8.61-.74.01-1.49-.04-2.22-.15-.26-.03-.52,0-.76.1-.32.12-.65.21-.99.27-1.59.17-2.41,1.28-3.1,2.54-.17.36-.41.69-.71.95-.38.29-.72.65-.98,1.05-.34.52-.98.62-1.6,1.02.16-.85.53-1.65,1.07-2.32ZM29.18,17.85c-1.04.32-1.29.27-1.3-.96-.03-.85-.12-1.71-.28-2.54-.14-.68-.04-1.38.29-1.99.34-.54.39-1.22.13-1.8-.2-.51-.23-1.07-.09-1.6.18-.96.13-1.94-.16-2.87-.04-.14-.07-.28-.08-.42-.03-.54.05-.64.6-.69.14-.01.27,0,.46,0-.04.66-.17,1.31-.38,1.94-.22.46-.11,1.01.27,1.34,0-.94.14-1.88.43-2.78.12-.42.32-.65.77-.62,1.46.1,2.97-.12,4.29.82.76.46,1.63.72,2.52.75,1,.1,1.98.28,2.96.46.96.3,1.84.8,2.59,1.47.28.19.53.43.79.65-.76,1.53-2.02,2.74-3.58,3.43-.33.18-.6.44-.81.75-.64.69-1.18,1.47-1.6,2.31-.02.05-.03.12-.07.15-1.08.84-1.79,2.05-2.85,2.9-.21.21-.55.22-.77.01-1.16-.92-2.71-1.19-4.11-.7ZM29.84,18.36c-.05-.02-.11-.04-.16-.06.14-.13.33-.37.47-.14.12.19-.13.25-.31.2ZM11.77,9.53c.18.57.48,1.11.87,1.56.54.63.98,1.33,1.33,2.09.18.42.47.79.83,1.07,1.3,1.07,2.68,2.03,4.13,2.89.75.41,1.27,1.13,1.98,1.62-.98-.16-1.9-.58-2.65-1.22-.63-.63-1.4-1.1-2.25-1.37-.77-.3-1.49-.72-2.12-1.26-.78-.71-1.76-1.18-2.81-1.33-1.21-.19-2.38-.6-3.45-1.21-.53-.29-1.09-.52-1.67-.67-.11-.01-.22-.05-.32-.11-.21-.2-.54-.24-.66-.52-.15-.35.24-.47.36-.7.34-.72.82-1.37,1.42-1.91.98-.82,2.24-1.21,3.51-1.09,2.99.28,6.01.07,8.93-.6.45-.1.92-.1,1.36,0,.6.1,1.21,0,1.74-.31.63-.33,1.31-.57,2.02-.7.67-.13,1.34-.31,2-.5.28-.08.57-.11.86-.07.05.94.16,1.88.32,2.81.04.28.02.57-.05.85-.19.61-.15,1.27.11,1.85.2.39.2.85,0,1.23-.53,1.06-.65,2.28-.33,3.42.24.86.05,1.77.32,2.63.08.26-.07.53-.34.61,0,0,0,0-.01,0-.86.32-1.25,1.12-1.81,1.75-.17.19-.29.29-.56.25-.73-.01-1.4-.43-1.72-1.08-.09-.21-.26-.38-.47-.47-.64-.37-1.23-.83-1.75-1.37-.44-.41-.91-.78-1.4-1.13-.27-.19-.55-.56-.98-.22-.11.08-.26-.06-.38-.13-1.08-.7-2.11-1.46-3.11-2.28-.19-.17-.35-.38-.44-.62-.46-.95-1.03-1.84-1.7-2.65-.35-.38-.58-.86-.66-1.37-.08-.45-.26-.88-.52-1.26-.17-.32-.56-.44-.88-.28-.01,0-.02.01-.03.02.53.46.88,1.1.98,1.8ZM40.09,12.65c1.15-.58,2.13-1.46,2.82-2.55.06-.1.14-.18.2-.27.39-.54.4-.55.79.11,1.1.65,2.34,1.04,3.61,1.13.85.21,1.72.38,2.59.51.19,0,.36.12.43.3-.43.35-.91.63-1.44.83-.94.47-1.95.77-3,.89-.97.01-1.91.35-2.67.95-.91.81-2.12,1.21-3.33,1.08-.51-.06-1.03-.01-1.53.13-.38.15-.79.21-1.19.16.54-1.35,1.49-2.49,2.71-3.28h0ZM7.6,27.91c-.17.04-.34.02-.49-.07-.98-.25-1.81-.9-2.28-1.79-.17-.38-.42-.72-.62-1.2,1.02.17,1.08,1.18,1.71,1.66-.07-1.23-.53-1.76-1.82-2.18-.1-.04-.19-.11-.25-.2-.74-1.18-1.54-2.33-2.4-3.43-.64-.99-.9-2.18-.73-3.34.03-.2.1-.39.21-.56.46-.85.81-1.76,1.06-2.7.12-.63.49-1.17,1.04-1.5.49-.24.91-.61,1.22-1.06.17-.28.38-.26.63-.03.36.37.84.6,1.35.66.38.12.74.28,1.08.49.67.36,1.37.68,2.09.95-.84.51-1.76.85-2.73,1-.73.17-1.4.51-1.98.99-.67.39-1.43.57-2.08.99-.35.23-.7-.08-1.09-.02.68.7.88.76,1.53.36,1.08-.5,2.14-1.06,3.16-1.68.07-.06.15-.09.23-.1,1.18-.21,2.33-.59,3.4-1.12.27-.1.56-.11.83-.03.58.23,1.2.38,1.82.43.17.01.33.09.45.22,1,.85,2.12,1.55,3.33,2.07.71.31,1.36.75,1.89,1.31.39.36.86.64,1.38.8,1.39.43,2.73,1,3.99,1.71.48.33,1.02.56,1.59.69-.42.91-1,1.75-1.7,2.47-.19.21-.47.31-.75.27.08-.1.11-.19-.05-.23-.2-.01-.4.04-.57.14-.21.08-.43.25-.63.25-.96-.04-1.7.62-2.6.76-.19.06-.37.16-.52.29-.75.49-1.67.64-2.54.42-.46-.11-.94.05-1.22.43-.7.66-1.58,1.1-2.52,1.28-1.46.36-2.98.09-4.4.62ZM17.11,31.75c-1.12-.62-2.42-.85-3.69-.68-.54.06-1.09-.05-1.58-.3-1.07-.29-2.1-.75-3.03-1.35-.35-.28-.95-.5-.82-.99.13-.47.74-.43,1.19-.42,1.17-.04,2.33-.19,3.48-.44.85-.18,1.61-.64,2.15-1.31.21-.29.58-.4.91-.27.87.21,1.79.08,2.56-.37.55-.27,1.14-.47,1.74-.59.08-.3.34-.32.58-.35.71-.13,1.4-.36,2.04-.69.14.17.02.29-.1.42-.92.98-1.63,2.14-2.08,3.41-.19.45-.45.86-.77,1.23-.68.77-1.28,1.61-1.78,2.51-.2.38-.39.38-.81.21ZM30.62,39.94c.05.47.31.89.36,1.39.23,2.25.39,4.5.5,6.76,0,.08,0,.17.2.26.09-2.39-.29-4.72-.35-7.2.32.32.51.75.53,1.21.17,2.02.58,4.01.61,6.04.19,2.59.15,5.2-.11,7.79-.19.9-.44,1.78-.75,2.64-.28.87-.54,1.75-.8,2.62-.11.36-.22.67-.68.77-.47.16-.85.51-1.04.97-.44.77-1.02,1.45-1.73,1.99-.61.5-.73,1.35-1.17,1.98-.06.1-.1.21-.13.32-.2.92-1.11,1.49-2.03,1.29-.53-.05-1.04.24-1.27.73-.56.89-1.38.6-2.15.61-.15-.01-.28-.1-.34-.24-.2-.34-.54-.58-.93-.63-.11-.3.07-.49.15-.68.38-.93.68-1.88.91-2.86.22-.86-.14-1.19-.98-1-.66.22-1.21.66-1.58,1.25-.33.39-.43,1.02-1.12.99-.3.6-.98.63-1.46.96-.48.25-.89.62-1.17,1.09-.21.3-.49.55-.82.72-.12.09-.29.07-.38-.05-.04-.05-.06-.11-.06-.18-.05-.74-.29-1.46-.7-2.08-.08-.18-.08-.4,0-.58.06-.16.12-.32.18-.48.26-.81.2-.99-.55-1.48.28-.53.65-1.01,1.08-1.42,1.78-1.7,3.19-3.76,4.13-6.04.72-1.65,1.29-3.34,1.86-5.04.19-.81.24-1.65.14-2.47-.04-1.17-.21-2.33-.33-3.5-.01-.06-.02-.11-.02-.17.16-1.98-.48-3.91-.33-5.89.02-1.03.12-2.05.33-3.06.15-.57.36-1.13.53-1.69.06-.18.17-.29.5-.34l-.39,1.24c.38.08.66.07.72-.42.09-.39.26-.76.51-1.07.07-.14.23-.19.36-.13.15.07.06.19.05.3-.01.22-.16.43-.06.67.46-.22.31-.97.93-1.04.22.27-.06.47-.12.69-.04.16-.19.37.02.44.27.1.18-.19.23-.32.14-.38.11-.85.56-1.07.21.28-.05.55.02.86.45-.27.22-.91.74-1.18-.1.81-.14,1.63-.1,2.44.19-.33.28-.7.27-1.08.02-.43.1-.85.22-1.26.04-.14.09-.3.26-.27.15.03.25.17.24.32,0,.31-.03.63-.08.94-.1.31-.06.65.1.93.29-.59.09-1.21.52-1.72.36.81-.04,1.69.37,2.43.05-.8.16-1.6.34-2.38.49,1.07.24,2.13.74,3.2.13-1.06-.24-1.95,0-2.96.72.85.27,1.92.82,2.86.21-.95-.15-1.77.16-2.56.26.76,0,1.66.65,2.31-.07-.73-.06-1.46.02-2.19.38.98.17,1.96.73,2.75-.07-.84-.09-1.68-.04-2.52.28,0,.23.21.26.35.38,1.64.56,3.32,1.04,4.95.1.45.14.9.12,1.36.15,1.62.19,3.25.15,4.88-.08.97-.08,1.94-.1,2.92-.09.99-.25,1.97-.47,2.93-.08.49-.41.91-.1,1.51.22.43-.16,1.05-.04,1.76.23-.57.36-1.17.39-1.78.21-1.47.43-2.94.5-4.42.19-2.11.18-4.23-.02-6.34-.07-.57-.09-1.14-.05-1.71-.08-1.16-.28-2.3-.6-3.42-.17-1-.27-2.01-.3-3.02.3.02.47.09.54.35.41,1.36.69,2.76.84,4.18h0ZM31.72,34.65c-.59.26-1.17.64-1.86.3-.28-.14-.58-.24-.85-.4-.34-.21-.77-.25-1.15-.1-.41.16-.87.12-1.24-.1-.22-.12-.48-.18-.73-.17-.74.07-1.43-.36-1.67-1.06-.09-.25-.15-.61-.53-.59-.39,0-.74.23-.88.59-.24.73-.95,1.2-1.71,1.14-.89,0-1.78.19-2.6.55-.47.2-.64.08-.79-.44-.12-.35-.12-.74.01-1.09.42-1.19,1.07-2.28,1.91-3.22.5-.51.89-1.11,1.18-1.77.46-.98,1-1.93,1.6-2.83.23-.37.53-.68.88-.93.77-.55,1.4-1.28,1.83-2.12.38-.56.67-1.18.86-1.83.02-.26.18-.5.41-.62.32.26-.28.37-.09.63.5-.18.56-.76.99-1.07.09.27-.14.4-.2.58-.03.1-.11.23.04.29.1.05.21,0,.26-.09,0-.01,0-.02.01-.03.25-.45.53-.88.84-1.29.06-.11.17-.19.29-.2-.09.5-.56.88-.45,1.53.47-.53.53-1.25,1.15-1.6.1.4-.16.64-.24.93-.07.27.3.4.26.71.54-.58.8-1.31,1.48-1.98-.29,1.02-.92,1.69-1.25,2.71.29-.21.52-.5.65-.84.37-.61.78-1.19,1.22-1.75.22-.35.64-.12.92,0,.24.1.43.29.52.53-.45-.12-.55.47-.97.41-.15-.28.34-.4.14-.68-.85.67-1.42,1.63-1.58,2.71.36-.13.34-.51.53-.74.15-.27.33-.52.55-.74-.02.68-.51,1.15-.61,1.86.61-.7.84-1.53,1.48-2.06-.52,1.13-1.17,2.18-1.63,3.43.55-.27.5-.86.87-1.12.26.22-.13.46.06.74.41-.81.91-1.57,1.49-2.28.03.1.08.17.06.2-.19.74-.48,1.45-.84,2.12-.75.81-1.12,1.9-1,2.99.09.56.17,1.12.26,1.69.03.17.04.34.02.51-.12,1.07-.15,2.15-.11,3.23,0,.14-.03.32.05.42.62.8.13,1.73.33,2.58.04.15-.03.3-.16.37ZM37.61,32.31c-.65-.2-1.35-.27-2.03-.19-1.07.13-2.16.01-3.19-.34-.2-.05-.33-.25-.29-.46.09-.85-.16-1.69,0-2.55.12-.65-.19-1.34.05-2.01.21.76.32,1.55.32,2.35.04.43.14.84.28,1.25.07.18.15.46.53.36-.43-1.16-.63-2.4-.57-3.64-.02-.31-.05-.62-.12-.93-.04-.18-.14-.39-.42-.31-.13.04-.28.13-.33-.09-.09-.25-.04-.53.13-.73.15-.16.31-.05.46.04.26.17.48.41.64.68.12.16.23.37.45.37,1,.09,1.89.66,2.39,1.53.45.55.97,1.04,1.56,1.44,1.33.86,2.52,1.92,3.54,3.14-1.09.47-2.31.51-3.42.11ZM54.54,28.95c-.29.82-.89,1.49-1.68,1.86-.59.22-1.21.34-1.83.36-1.82.15-3.62.52-5.35,1.1-.83.36-1.78.3-2.55-.17-.4-.22-.84-.34-1.3-.37-.37-.05-.7-.24-.94-.53-1.04-1.05-2.19-1.97-3.44-2.75-.58-.42-1.07-.95-1.44-1.57-.57-.66-1.33-1.13-2.17-1.35-.2,0-.38-.1-.52-.25-.23-.26-.47-.5-.72-.74-.22-.16-.28-.47-.12-.7.01-.02.03-.03.04-.05.36-.51.66-1.07.9-1.65.06-.2.23-.34.44-.35,1.82-.18,3.61-.58,5.47-.71.8.14,1.62.21,2.44.21.09,0,.17,0,.25.05,1.05.58,2.23.87,3.42.83.23,0,.45.11.61.28.53.52,1.02,1.08,1.46,1.68.36.9,1.25,1.48,2.22,1.46.42-.02.72.3,1.05.52.94.73,2,1.28,3.14,1.63.96.22.98.29.61,1.18ZM56.12,26.3c-.45.33-.8.78-.99,1.31-1.26-.32-2.46-.84-3.55-1.55-.62-.5-1.38-.81-2.18-.87-.43-.08-.8-.35-1.01-.73-.4-.72-.93-1.36-1.56-1.89-.1-.08-.13-.22-.07-.34.26-.1.54-.11.81-.03.99.26,2.01.41,3.03.43.49.03.97.11,1.43.25,1.08.27,2.2.3,3.29.53.22.04.46.02.67-.06.35-.12.71-.23,1.06-.33.7-.21,1.45-.2,2.14.04-.83,1.25-1.87,2.35-3.07,3.25ZM61.08,19.41c-.01.17-.06.34-.14.49-.5,1.08-1.08,2.13-1.73,3.12-.08-.36-.42-.61-.79-.59-.74-.08-1.49.02-2.19.28-.37.13-.76.18-1.15.15-1.25-.13-2.48-.34-3.7-.62-.82-.09-1.64-.16-2.46-.24-.17.01-.34,0-.51-.06-.72-.29-1.5-.39-2.27-.31-.85-.05-1.7-.1-2.54-.2-.57-.06-.57-.1-1.18-.61.86-.22,1.75-.28,2.63-.17.74.1,1.47.23,2.2.34.2.03.4.05.6.06,1.51.07,3.01.24,4.5.51.37.08.74.09,1.11.03-.09-.31-.35-.28-.56-.29-.8-.05-1.59-.17-2.37-.35-.39-.11-.79-.16-1.19-.16-1.15.01-2.29-.08-3.42-.26-1.19-.14-2.4-.15-3.6-.02-.6.07-1.2.03-1.79-.13-.41-.12-.85-.16-1.27-.13-.25.01-.51-.03-.64.3-.08.21-.32.21-.52.23-.74.07-1.47.2-2.19.37-.59.1-1.19.15-1.79.14-.32.02-.39-.18-.32-.45.04-.14.14-.29.11-.41-.29-.96.41-1.42.95-1.98.98-1.13,2.31-1.91,3.77-2.22.47-.13.96-.17,1.44-.12.57.09,1.15,0,1.67-.25.83-.3,1.62-.7,2.34-1.21.62-.43,1.36-.65,2.11-.62,1.31-.13,2.58-.55,3.7-1.24.02-.02.05-.03.07-.05.69-.51,1.37-.86,2.19-.16.38.27.84.39,1.31.34.52-.04,1.02.03,1.54.05,1.4.08,2.75.59,3.87,1.44.34.24.65.51.94.81,1.05,1.13,1.52,2.68,1.28,4.2Z"/>
      <path class="cls-1" d="M43.91,9.96v-.02s-.03-.01-.03-.01l.03.03Z"/>
      <path class="cls-1" d="M22.66,59.33c-.31.28-.73.48-.87.92-.15.36-.41.66-.75.85-.48.35-1.01.74-1.08,1.35.07.31.02.55.14.76.07.16.23.26.4.26.8-.09,1.51-.57,1.87-1.29.15-.45.06-1.02.71-1.16.04,0,.07-.09.08-.14.1-.39.17-.78.22-1.17,0-.25-.2-.46-.46-.46-.09,0-.18.03-.26.08Z"/>
      <path class="cls-1" d="M28.97,59.4c.58-.76,1.05-1.6,1.4-2.49.6-1.52.65-3.18,1.16-4.73.02-.05.03-.11.02-.17,0-.15-.06-.29-.24-.29-.14-.02-.26.07-.28.21,0,.01,0,.03,0,.04,0,.81-.3,1.57-.36,2.37-.14,1.49-.61,2.92-1.4,4.19-.21.24-.32.55-.29.87Z"/>
      <path class="cls-1" d="M28.29,60.19c-.32.63-.94,1.07-1.07,1.81.51-.5.88-1.13,1.07-1.81Z"/>
      <path class="cls-1" d="M27.21,62.04s0-.03,0-.04l-.03.03.02.02Z"/>
      <path class="cls-1" d="M27.21,62.04l-.02-.02v.03s.02,0,.02,0Z"/>
      <path class="cls-1" d="M26.72,62.92c.26-.32.5-.53.47-.87-.32.17-.5.51-.47.87Z"/>
      <path class="cls-1" d="M15.9,17.98c.38.3.82.52,1.29.64.67.1,1.31.36,1.86.76.45.24.9.49,1.36.73.3.19.68.25,1.02.15-.87-.36-1.71-.78-2.53-1.26-.49-.34-1.02-.63-1.57-.87-.88-.34-1.73-.75-2.54-1.22-.67-.45-1.44-.63-2.11-1.03-.24-.13-.53-.12-.77.01.37.04.72.15,1.04.34.98.58,1.96,1.17,2.95,1.75Z"/>
      <path class="cls-1" d="M19.54,21.53c.53.48,1.08.4,1.55.56,1.09.37,1.09.35,1.44.17-.92-.5-1.95-.75-2.99-.73Z"/>
      <path class="cls-1" d="M6.89,26.34c.79,0,1.58.07,2.36.21-.71-.42-1.58-.5-2.36-.21Z"/>
      <path class="cls-1" d="M19.93,22.92c.32.13.67.17,1.02.13-.3-.2-.68-.25-1.02-.13Z"/>
      <path class="cls-1" d="M16.97,14.27c-.88-.84-1.69-1.76-2.39-2.75-.67-.96-1.26-1.98-1.74-3.04-.13,1.4,2.31,4.85,4.13,5.8Z"/>
      <path class="cls-1" d="M6.05,11.02c.79.27,1.56.59,2.31.96.15.12.35.16.53.09-1.27-.94-2.17-1.29-2.83-1.05Z"/>
      <path class="cls-1" d="M37,17.53c-.06,0-.11.01-.16.05-.06.05-.11.11-.14.19-.01.09.08.15.16.16.2.03.4.04.6.02.81-.16,1.55-.58,2.1-1.19-.76.51-1.65.78-2.57.77Z"/>
      <path class="cls-1" d="M40.55,28.05c-.56-.39-1.19-.67-1.86-.82-.69-.18-1.35-.42-2-.72.14.33.43.56.78.62,1.47.39,2.81,1.13,3.91,2.17.2.23.52.32.81.24-.48-.56-1.04-1.06-1.65-1.48Z"/>
      <path class="cls-1" d="M46.24,31.5c.58-.27,1.28-.16,1.87-.48-.68-.1-1.35-.18-1.87.48Z"/>
      <path class="cls-1" d="M43.93,30.44q.32.54.84.61c-.25-.2-.4-.53-.84-.61Z"/>
      <path class="cls-1" d="M28.76,9.96c-.08.03-.17.11-.12.19.24.68.34,1.4.3,2.11.31-.67.36-1.42.14-2.12-.02-.13-.13-.21-.26-.19-.02,0-.04,0-.06.02Z"/>
      <path class="cls-1" d="M28.67,16.09c.27-.37.06-.73.07-1.16-.54.41-.11.8-.07,1.16Z"/>
      <path class="cls-1" d="M30.95,26.89c0-.16-.03-.34-.3-.29,0,.77.04,1.54-.01,2.3.06.63-.03,1.26-.25,1.84-.33.65-.33,1.42-.02,2.08.32-.59.47-1.26.43-1.93-.04-.17.02-.35.15-.47.19-.15.16-.35.15-.55-.05-1-.09-1.99-.14-2.99Z"/>
      <path class="cls-1" d="M28.81,31.37c.5-2.51.87-5.04,1.1-7.59-.51,2.51-.88,5.04-1.1,7.59Z"/>
      <path class="cls-1" d="M27.81,31.09c.24-.86.4-1.73.48-2.62-.43.8-.6,1.72-.48,2.62Z"/>
      <path class="cls-1" d="M28.51,32.54c.21-.12.28-.39.16-.6,0,0,0,0,0,0-.1.19-.24.35-.16.6Z"/>
      <path class="cls-1" d="M19.99,5.34c1.24-.17,2.5-.17,3.74-.45-1.26-.11-2.54.04-3.74.45Z"/>
      <path class="cls-1" d="M45.5,8.23c.08-.02.14-.1.14-.19,0-.03,0-.07-.02-.07-.52-.18-1.02-.43-1.48-.73-.12-.06-.2.09-.15.21.36.47.92.75,1.51.77Z"/>
      <path class="cls-1" d="M53.13,11.45c-.57-.29-1.07-.67-1.68-.99.19.73.94,1.17,1.68.99Z"/>
      <path class="cls-1" d="M35.32,2.27c.78.34,1.6.55,2.44.64-1.13-.65-1.8-.84-2.44-.64Z"/>
      <path class="cls-1" d="M45.11,9.09c.27.18.63.13.85-.11-.79-.14-1.53-.44-2.19-.89.27.57.83.76,1.34,1.01Z"/>
      <path class="cls-1" d="M34.69,3.83c.6.42,1.3.68,2.02.76-.61-.39-1.3-.65-2.02-.76Z"/>
      <path class="cls-1" d="M23.63,4.26c.32,0,.42-.25.48-.51.02-.09-.02-.17-.11-.17-.05,0-.14.06-.14.08.06.51-.31.36-.56.35-.32,0-.66-.16-1.03.25.53,0,.94,0,1.36,0Z"/>
      <path class="cls-1" d="M36.85,3.54c-.57-.52-1.18-.44-1.73-.6.39.62.99.59,1.73.6Z"/>
      <path class="cls-1" d="M19.95,25.16c-2.14,1.2-4.41,2.17-6.75,2.9-.71.17-1.35.53-1.87,1.04,1.47-.61,2.98-1.12,4.48-1.64,1.5-.52,2.77-1.52,4.39-2.04-.33.59-.82,1.07-1.4,1.41-.25.18-.68.31-.67.61.01.43-.31.58-.46.87-.08.16-.33.26-.17.54.52-.63,1.07-1.2,1.56-1.83.61-.57,1.14-1.2,1.59-1.9-.24-.17-.44.05-.62-.06-.02.04-.04.09-.08.11Z"/>
      <path class="cls-1" d="M20.03,25.05v-.03s.02,0,.02,0h-.02s0,.02,0,.02h0Z"/>
      <path class="cls-1" d="M16.26,28.29c.27.05.55-.03.74-.23-.27-.09-.57,0-.74.23Z"/>
      <path class="cls-1" d="M38.51,15.45c.6-1.42,2.01-2.05,3.13-2.97l-.17-.18c-.5.3-1.04.56-1.51.91-.67.45-1.2,1.06-1.56,1.78-.05.1-.28.28.1.45Z"/>
      <path class="cls-1" d="M43.91,9.96l-.03-.03s0,.03,0,.04h.03Z"/>
      <path class="cls-1" d="M43.09,10.72c.34-.19.74-.29.79-.75-.66.15-.76.25-.79.75Z"/>
      <path class="cls-1" d="M33.5,26.39c-.09-.11-.25-.12-.36-.02-.09.08-.11.21-.05.32.28.58.6,1.14.96,1.68.07.09.15.16.34.06-.19-.53-.38-1.08-.59-1.62-.07-.15-.17-.29-.29-.41Z"/>
      <path class="cls-1" d="M34.53,27.47c-.01.55.26,1.06.72,1.36l-.5-1.43-.22.07Z"/>
      <path class="cls-1" d="M51.22,24.57c-.34-.52-.99-.76-1.59-.59.69.33,1.3.79,1.8,1.36.56.43,1.31.52,1.96.23-.11-.05-.23-.09-.35-.11-.72.02-1.4-.32-1.82-.9Z"/>
    </g>
  </g>
</svg>