<?xml version="1.0" encoding="UTF-8"?>
<svg id="Layer_2" data-name="Layer 2" xmlns="http://www.w3.org/2000/svg" viewBox="0 0 40.47 90.01">
  <defs>
    <style>
      .cls-1 {
        fill: #010101;
      }
    </style>
  </defs>
  <g id="Layer_1-2" data-name="Layer 1">
    <g>
      <path class="cls-1" d="M40.21,40.86c-.31-.52-.55-1.08-.71-1.66-.19-.8-.47-1.58-.84-2.32-.37-.77-.8-1.52-1.27-2.23-.48-.67-1.03-1.29-1.55-1.93-.36-.44-.7-.9-1.08-1.33-.8-.88-1.54-1.82-2.21-2.8-.83-1.14-1.73-2.24-2.68-3.27-.39-.43-.74-.91-1.04-1.41-.32-.53-.62-1.07-.88-1.63-.26-.63-.45-1.28-.7-1.91-.16-.46-.38-.91-.64-1.33-.54-.78-.93-1.67-1.54-2.4-.07-.09-.12-.19-.16-.29-.2-.45-.4-.9-.59-1.35-.46-.98-.82-2-1.06-3.05-.16-.73-.35-1.44-.58-2.15-.31-1.03-.68-2.05-1.12-3.03-.37-.81-.82-1.57-1.36-2.28-.61-.79-1.39-1.43-1.98-2.25-.19-.23-.42-.43-.68-.58-.68-.47-1.42-.84-2.07-1.35-.32-.22-.7-.32-1.08-.28-.32.04-.61.18-.85.4-.49.47-.92,1-1.29,1.57-.09.09-.15.2-.2.32-.35.78-.62,1.6-.81,2.43-.1.64-.28,1.27-.39,1.91-.17.87-.29,1.75-.36,2.64-.08.39-.19.77-.33,1.14-.15.68-.32,1.36-.5,2.03-.18.72-.37,1.44-.55,2.17-.27,1.14-.39,2.31-.66,3.46-.21.88-.44,1.75-.63,2.64-.24,1.15-.6,2.27-1.06,3.36-.51,1.3-1.08,2.57-1.72,3.81-.5.9-.85,1.88-1.36,2.78-.08.14-.13.29-.2.43-.26.8-.59,1.56-1.01,2.29-.04.07-.06.15-.06.23-.02.24-.08.47-.17.69-.32.86-.67,1.71-.94,2.58-.41,1.34-.76,2.69-1.13,4.04-.16.67-.21,1.35-.16,2.04,0,.19.08.37.2.52.33.46.78.84,1.29,1.09.23.12.43.27.61.46.72.77,1.68,1.27,2.73,1.41.33.02.66.07.99.14.2.05.41.05.61,0,.76-.2,1.56-.14,2.27.17.7.34,1.4.67,2.11.97.68.31,1.42.45,2.17.4.38-.03.75-.12,1.12-.18.61-.13,1.23-.13,1.84-.01.75.17,1.5.24,2.25.33.36.05.41.07.43.43.03.46.03.92.04,1.38-.02,1.03-.1,2.06-.24,3.08-.06.85-.18,1.7-.35,2.53-.21.88-.3,1.78-.48,2.66-.13.63-.07,1.27-.21,1.89-.1.48-.17.97-.25,1.45-.22,1.56-.59,3.09-1.13,4.57-.31.73-.66,1.44-1.06,2.13-.54,1.01-1,2.05-1.47,3.09-.57,1.17-1.26,2.28-2.05,3.31-.18.24-.42.44-.57.7-.59,1.02-1.33,1.94-2.2,2.73-.12.11-.21.24-.28.38-.07.16-.18.3-.31.41-.3.28-.54.63-.69,1.01-.14.33-.24.7-.64.85-.08.03-.1.11-.1.2.03.42-.3.79-.14,1.23.02.06-.04.15-.07.22-.33,1.09-.28,2.25.12,3.31.14.32.24.66.29,1,.05.41.21.8.44,1.15.15.32.42.57.74.7.72.23,1.41.57,2.03,1.01.15.09.31.16.48.19,1.01.22,2.06.12,3.02-.28.41-.23.84-.44,1.28-.63.83-.27,1.6-.71,2.24-1.31.1-.08.19-.17.26-.28.28-.51.55-1.04.83-1.55.28-.67.47-1.38.56-2.1.31-1.27.69-2.52,1.14-3.75.31-.85.48-1.74.77-2.59.09-.27.16-.55.2-.83.06-.44.2-.87.41-1.26.15-.26.27-.54.33-.84.05-.31.16-.62.31-.9.18-.34.27-.71.28-1.09,0-.11.04-.22.05-.33.12-.93.39-1.83.48-2.76.06-.79.18-1.58.37-2.35.17-.68.29-1.36.38-2.06.14-.96.13-1.93.25-2.89.26-2,.33-4.02.47-6.03.06-1.13.05-2.25-.03-3.38-.08-1.47-.17-2.95-.31-4.42-.02-.17,0-.27.21-.27.57-.01,1.14-.07,1.7-.18.63-.07,1.25-.26,1.81-.55.43-.24.85-.49,1.29-.71.49-.29,1.05-.43,1.62-.41.41.05.82.08,1.23.07,1.04.02,2.06-.24,2.95-.77.47-.3.98-.52,1.51-.66.34-.06.68-.13,1.02-.22.65-.21,1.27-.5,1.86-.84.4-.23.67-.63,1.09-.83.02-.01.04-.05.06-.07.37-.59.39-1.33.03-1.93ZM7.67,46.26c-.31-.06-.64-.04-.94.07-.12.04-.25.06-.38.05-.82.01-1.64-.12-2.42-.4-.73-.37-1.41-.85-2.01-1.41-.05-.04-.09-.09-.11-.15-.02-.08-.03-.15-.04-.23.78-.02,1.49-.36,2.27-.36.26-.03.52-.1.76-.2,1.03-.32,2.06-.61,3.07-.99.98-.37,1.92-.82,2.88-1.23.71-.31,1.4-.67,2.05-1.1.17-.11.35-.32.64-.2.1.04.25-.16.35-.28.21-.25.49-.42.8-.49-.16.41-.59.6-.76,1.07.36-.26.67-.57.92-.93.18-.24.44-.41.73-.49.33-.1.68-.15,1.02-.21.13-.02.1.08.12.15-.3.22-.53.52-.66.87.3-.22.53-.52.67-.87.07.01.24-.04.15.1-.21.37-.48.69-.81.95-.07.14-.13.28-.3.33-.42.65-.92,1.25-1.48,1.78-.69.61-1.39,1.2-2.13,1.75-.77.57-1.63.98-2.43,1.48-.4.25-.81.5-1.2.75-.22.16-.5.23-.76.18ZM15.13,47.67c-.77.03-1.54.12-2.3.27-.49.05-.99-.03-1.44-.23-.36-.09-.64-.35-1.06-.43.15-.21.37-.22.52-.4-.17-.03-.35.02-.48.15-.17.13-.4.13-.58,0-.44-.26-.9-.47-1.38-.64.2-.18.41-.34.63-.48.57-.29,1.08-.66,1.65-.95.82-.46,1.59-.99,2.31-1.6.65-.49,1.25-1.03,1.8-1.62.61-.69,1.19-1.4,1.78-2.1.24-.28.47-.56.71-.84.1-.15.29-.21.45-.15-.28.44-.54.89-.77,1.36.34-.39.66-.8.95-1.23.08.14.08.31-.01.44-.17.39-.38.77-.63,1.12-.15.2-.26.43-.31.68.39-.43.61-.97,1.02-1.42.12.17.14.4.03.59-.1.18-.2.36-.29.55-.1.18-.14.39-.13.6,0,.08.05.16.15.15.09-.01.05-.09.04-.15,0-.34.13-.67.36-.92.13.54.14,1.11.03,1.65-.35,1.19-.82,2.33-1.41,3.42-.18.32-.36.63-.55.95-.04.07-.08.14-.14.19-.25.2-.43.46-.53.77-.06.19-.2.25-.43.27ZM18.59,47.83c-.02.28-.07.35-.35.28-.34-.08-.69-.13-1.04-.16-.05-.34.19-.57.3-.92-.24.15-.41.4-.48.68-.03.09,0,.2-.15.18-.12-.02-.15-.11-.14-.21.02-.24.11-.46.25-.66.1-.1.16-.23.19-.37-.28.18-.49.46-.58.79-.04.09-.04.19-.07.28-.04.11-.14.12-.24.07-.09-.04-.07-.12-.04-.2.1-.28.24-.55.41-.8.09-.13.17-.27.22-.42-.48.32-.57.97-1.06,1.29.35-.86.89-1.62,1.31-2.44.43-.8.79-1.64,1.08-2.51.15.81.25,1.63.31,2.46.07.88.1,1.77.07,2.66ZM23.55,55.19c-.17.71-.27,1.44-.3,2.17-.12,1.06-.24,2.11-.35,3.17-.05.55-.07,1.1-.06,1.65.24-2.65.62-5.29,1.16-7.9,0,.33,0,.66,0,1,.02.86-.11,1.71-.16,2.57-.01.27-.03.54-.04.81-.05,1.27-.22,2.53-.37,3.79-.07.57-.02,1.14-.09,1.71-.13,1.2-.35,2.39-.63,3.56-.13.49-.2,1-.21,1.51-.08.68-.2,1.35-.36,2.01-.07.52-.18,1.03-.25,1.55-.05.28-.13.55-.25.81-.27.64-.43,1.32-.76,1.94-.14.32-.22.66-.24,1.01-.03.2-.09.4-.19.59-.04.09-.14.13-.23.09,0,0,0,0,0,0-.08-.02-.13-.09-.13-.17,0-.14,0-.29-.02-.43-.01-.15-.07-.28-.25-.29-.13,0-.25.09-.27.22-.08.22-.13.46-.14.7,0,.4-.13.79-.36,1.11-.28.35-.46.77-.52,1.21,0,.12-.07.22-.17.27-.41.23-.68.64-.75,1.1-.07.29-.18.56-.32.83-.24.49-.35,1.03-.29,1.57.02.18-.03.37-.13.52-.39.61-.85,1.18-1.24,1.8-.2.31-.46.59-.66.92-.05.08-.11.19-.21.18-.18,0-.33-.02-.34.22,0,.05-.07.05-.12.04-.05,0-.09-.05-.08-.1,0-.02,0-.03.02-.04.13-.27.26-.54.39-.82.15-.33.15-.49-.02-.6-.16-.1-.32-.04-.54.26-.19.27-.36.55-.55.84-.15-.13-.08-.28-.09-.41,0-.16,0-.36-.16-.42-.26-.11-.19-.29-.16-.47.09-.35.1-.73.02-1.08-.05-.29-.33-.48-.61-.42-.04,0-.07.02-.11.03-.21.09-.41.18-.6.29-.23.08-.38.31-.37.55-.05.3-.17.58-.36.81-.07.1-.21.13-.32.05,0,0-.02-.01-.02-.02-.12-.08-.22-.19-.28-.31-.28-.53-.29-1.16-.02-1.69.19-.33.33-.69.42-1.06.15-.55.06-.68-.52-.68,0-.22.06-.44.19-.62.53-1.01,1.19-1.95,1.97-2.79.31-.32.55-.7.7-1.12.1-.3.05-.63.23-.91.05-.11.01-.23-.09-.29,0,0,0,0,0,0-.09-.08-.23-.07-.31.02,0,0-.02.02-.02.03-.23.5-.8.66-1.08,1.12-.28.44-.59.87-.94,1.26-.18.2-.21.67-.67.48,0,0-.04.07-.06.11-.07.14-.17.26-.28.37-.54.45-.93,1.05-1.13,1.73-.14.54-.42,1.03-.81,1.43-.05.04-.07.11-.12.14-.15.1-.3.03-.33-.16,0-.37-.06-.73-.18-1.08-.2-.39-.17-.86.08-1.22.17-.38.4-.72.69-1.02.13-.12.24-.26.32-.41.09-.15.2-.29.32-.41.64-.57,1.19-1.24,1.64-1.97.53-.85,1.23-1.58,1.78-2.41.59-.88,1.12-1.81,1.57-2.76.61-1.31,1.2-2.62,1.93-3.87.48-.9.82-1.86,1.03-2.86.38-1.52.63-3.07.9-4.62.07-.42.04-.85.11-1.28.16-.92.27-1.84.47-2.76.22-1.02.29-2.07.44-3.11.18-1.32.23-2.66.14-3.99-.02-.23.23-.33.18-.49-.04-.14-.24-.23-.22-.42.09-.79-.06-1.58-.04-2.37.02-.78-.2-1.54-.24-2.32-.05-.48-.04-.95,0-1.43.4.37.65.87.71,1.4,0,.08,0,.16.02.24.07.26.28.33.44.12.12-.15.32-.24.36-.5.16.17.38.26.41.44.08.34.07.7-.02,1.04-.08.19-.06.4.05.56.19.26.28.57.26.89,0,.06.01.13.05.18.16.27.24.59.23.91.11,1.01.15,2.03.11,3.04,0,.08.01.16.03.23.05.15.21.24.36.19.09-.03.15-.09.18-.18.06-.21.08-.44.08-.66.02-.19-.11-.51.1-.55.25-.04.18.31.27.48.05.1.05.23.12.31.27.38.38.85.28,1.31-.01.19-.03.38-.04.57,0,.27-.02.56.34.64.15.03.1.17.1.28,0,.54,0,1.08,0,1.73.17-.56.23-1.15.16-1.73.09-.53.12-1.07.08-1.61.46.06.56.31.6.69.16,1.15.07,2.32-.26,3.44ZM29.17,46.1c-.16.06-.33.12-.49.18-.21.08-.33.35-.56.32-.19-.03-.17-.36-.4-.41,0,.11.03.21.1.3.13.25.04.39-.25.49-.22-.4-.48-.79-.76-1.16.07.47.49.77.62,1.24-.28.12-.55.24-.84.33-.31.1-.4.05-.58-.24-.1-.24-.23-.46-.39-.66.08.34.2.66.37.96-.05.09-.15.14-.25.14-.49.05-.98.11-1.46.15-.41.04-.45-.02-.49-.41-.04-.65-.15-1.29-.31-1.92-.18-.68-.27-1.37-.25-2.07,0-.3-.02-.6-.08-.9-.02-.06-.04-.14-.02-.19.18-.35,0-.67-.07-1-.06-.24-.05-.48.03-.71.24.45.21.99.51,1.43l-.36-1.71.07-.02.44,1.19c.05-.22.02-.45-.09-.65-.13-.46-.28-.91-.43-1.36-.03-.09.02-.25-.18-.21-.19.04-.22.16-.18.32.06.21.12.43.18.64.02.06.03.14-.05.16-.09.03-.13-.03-.16-.12-.16-.66-.19-1.34-.11-2.02.02-.19.2-.14.3-.11.42.1.86.07,1.26-.08.09-.03.18-.07.26-.11.28.7.45,1.42.76,2.1.06.12.05.28.23.32.13.03.12.17.17.27.41.93.88,1.82,1.42,2.69.31.51.69.99,1.12,1.41.39.48.86.89,1.39,1.22-.21.09-.35.15-.49.2h0ZM33.99,45.47c-.82.39-1.73.57-2.63.51-.17-.01-.33-.1-.44-.25-.43-.49-.91-.93-1.29-1.46-.05-.08-.16-.11-.24-.06.35.62.97.99,1.34,1.57-.38.13-.36.12-.6-.18-.12-.18-.27-.34-.46-.46-.09.13.06.21.02.36-.18-.04-.34-.13-.46-.27-.54-.51-1.05-1.06-1.53-1.63-.39-.54-.74-1.11-1.05-1.69-.5-.86-.86-1.8-1.34-2.68-.29-.55-.48-1.14-.56-1.76-.03-.23-.21-.44-.07-.72.31.17.67.27.65.74,0,.03.01.06.03.09.33.65.66,1.3,1,1.95.02.04.07.06.1.09h.01s-.01,0-.01,0c.09.31.29.59.55.78-.21-.25-.27-.59-.53-.81h0s0,0,0,0c-.27-.7-.58-1.39-.94-2.05.14.02.26.1.33.22.17.25.39.45.65.6.12.06.13.17.17.27.21.47.44.94.7,1.39.05.1.12.2.25.1h0c-.3-.46-.56-.94-.77-1.44.3-.02.45.05.54.31.21.56.52,1.09.92,1.54-.15-.6-.67-1.05-.72-1.7.46-.11.93.15,1.09.6.15.4.38.75.7,1.03-.1-.38-.4-.62-.43-1.01.26.14.53.25.81.31.14.01.2.15.26.25.23.38.53.71.9.97.16.13.31.27.43.44.13.16.28.3.45.42,1.08.77,2.13,1.59,3.24,2.33.16.13.32.27.46.42-.53.31-1.02.64-1.56.9ZM38.54,43.6s-.08-.04-.09-.09h0,0s0,0,0,0h0c-.29.47-.58.59-1.04.41-.31-.12-.61-.26-.92-.4q.04.26.81.62c-.13.2-.4.26-.6.13,0,0,0,0,0,0-.32-.16-.64-.35-.94-.55.13.34.46.46.72.67-.05.09-.17.12-.26.07,0,0-.01,0-.02-.01-.44-.27-.89-.54-1.31-.84-.24-.18-.49-.35-.73-.52-.77-.55-1.57-1.08-2.29-1.69-.44-.38-.88-.77-1.29-1.18-.14-.12-.24-.27-.3-.44.49-.07,1,.04,1.41.32.21.17.44.32.68.44.09.03.15.12.15.21.03.31.26.48.51.7,0-.31-.31-.44-.27-.75.5.1.99.26,1.45.48.5.41,1.2.44,1.73.07.17-.11.25-.05.31.12.07.19.18.37.24.57.12.35.43.61.79.68.26.07.53.1.8.11.25,0,.51.04.74.14.23.06.46.11.7.12-.26.29-.6.51-.98.62h0ZM39.89,42.61c-.13.17-.31.13-.48.1-.46-.11-.93-.2-1.4-.26-.09,0-.19-.01-.28-.02-.48.01-.9-.3-1.04-.75-.07-.21-.16-.42-.25-.62-.04-.16-.2-.25-.36-.2-.02,0-.04.01-.06.02-.1.04-.2.09-.3.14-.42.28-.98.26-1.39-.04-.27-.17-.56-.29-.88-.34-.58-.1-1.13-.33-1.61-.67-.41-.3-.91-.47-1.42-.48-.14,0-.31.06-.4-.09-.14-.22-.27-.36-.5-.1-.05.05-.13.03-.18,0-.33-.26-.77-.39-1-.78-.14.08-.23.02-.3-.11-.33-.52-.61-1.08-.83-1.65,0-.02-.05-.02-.12-.05.21.61.47,1.2.78,1.76-.47.04-.94-.1-1.32-.39-.22-.18-.43-.38-.62-.59-.26-.3-.56-.57-.89-.78-.14-.07-.19-.21-.28-.32-.06-.08-.16-.11-.25-.07-.09.03-.1.12-.1.2,0,.16,0,.32,0,.48.06.67-.34,1.07-1.01.92-.5-.08-1.01-.07-1.51.03-.18.04-.38.03-.55-.05-.32-.1-.66-.1-.98,0-1.53.27-3.07.46-4.58.82-.36.07-.71.18-1.04.34-.01,0-.03.02-.04.02-.25-.03-.5.07-.67.25-.19.17-.44.26-.64.41-.21.17-.38.2-.57-.02-.26-.3-.61-.23-.93-.18-.15.02-.28.06-.38-.07-.04-.05-.12-.09-.17-.04-.25.26-.35.01-.47-.14-.12-.15-.22-.31-.33-.47-.24-.43-.78-.59-1.21-.35-.12.07-.23.16-.31.28-.04.03-.07.07-.09.11-.33.82-1.1,1.09-1.8,1.43-.74.36-1.27.09-1.36-.73-.07-.59-.42-1.11-.93-1.41-.3-.19-.49-.51-.5-.86-.02-.24-.02-.48,0-.71.04-.57.03-1.14-.02-1.71-.05-.87-.33-1.61-1.4-1.74.4-.95.68-1.9,1.15-2.76.4-.74.68-1.54,1.11-2.26.44-.77.82-1.57,1.14-2.4.73-1.63,1.32-3.33,1.75-5.07.22-1.04.45-2.07.73-3.1.12-.45.2-.9.26-1.35.18-1.29.57-2.53.85-3.8.21-.95.53-1.86.74-2.8.09-.42.15-.84.15-1.27.03-.62.12-1.23.29-1.83.16-.66.28-1.33.42-2,.19-.92.56-1.79,1.09-2.57.25-.4.55-.78.88-1.12.58-.59,1.52-.61,2.13-.05.26.2.55.38.84.52.14.07.28.15.4.25.29.22.59.43.9.62.34.21.6.53.72.91.28.24.54.5.78.79.28.36.64.65.92,1.03.56.79,1.04,1.63,1.42,2.53.34.82.63,1.65.88,2.51.25.7.45,1.42.61,2.14.22.96.54,1.89.96,2.78.34.93.79,1.81,1.34,2.62.04.05.1.12.09.16-.14.34.13.57.2.85.11.41.23.82.36,1.23.22.64.55,1.23,1,1.74-.18-.54-.56-.98-.76-1.5-.2-.52-.28-1.06-.45-1.59.14,0,.19.1.23.18.37.57.69,1.18.95,1.81.23.73.5,1.44.81,2.13.52,1.16,1.21,2.23,2.05,3.18.76.81,1.47,1.66,2.14,2.54.31.4.62.81.89,1.24.23.36.52.68.78,1.02.62.68,1.2,1.39,1.74,2.14.27.4.57.76.91,1.1.65.69,1.19,1.48,1.61,2.34.18.37.4.72.59,1.09.34.77.62,1.56.84,2.38.05.17.12.32.21.47.29.51.51,1.06.65,1.63.08.38-.04.78-.31,1.06h0Z"/>
      <path class="cls-1" d="M18.48,3.04h0s-.02-.02-.02-.02l.02.02Z"/>
      <polygon class="cls-1" points="27.72 46.19 27.72 46.19 27.73 46.18 27.72 46.19"/>
      <path class="cls-1" d="M35.34,36.47c-.07-.05-.05-.15-.02-.22.02-.11,0-.22-.06-.32-.35-.8-.81-1.55-1.37-2.22-.2-.3-.46-.55-.77-.74-.54-.33-1.03-.74-1.45-1.22-.07-.06-.14-.13-.21-.2-.86-.76-1.52-1.73-1.9-2.81-.09-.25-.2-.5-.34-.73-.29-.48-.61-.94-.91-1.41-.02-.04-.06-.1-.09-.1-.3-.01-.33-.23-.32-.44-.15-.07-.25.08-.39,0-.44-.21-.74-.62-1.17-.85-.02-.01-.03-.05-.04-.08-.26-.45-.42-.96-.46-1.48,0-.06.01-.14-.04-.18-.3-.25-.31-.65-.49-.96-.14-.21-.13-.49.02-.69-.18.01-.32.11-.4-.04-.16-.33-.49-.48-.81-.78,0,.24.06.43-.19.49-.17.04-.21.2-.24.37-.09.53-.04,1.08.13,1.59.12.44.29.87.51,1.27.14.21.26.44.33.68.13.61.39,1.17.58,1.76.21.48.21,1.04-.01,1.52-.04.08-.02.1.05.12.12.03.13.13.13.23.02.24.12.46.29.62.15.18.38.35.42.56.05.27.32.35.37.6.19.63.21,1.31.06,1.95-.14.45-.16.93-.07,1.4.06.49.42.88.9.98.42.1.83.21,1.24.34.43.14.45.21.28.63,0,.01.03.04.05.06.11-.03.12-.14.18-.21.04-.05.11-.09.16-.03.12.14.32.14.43.29.69.81,1.49,1.52,2.38,2.1.4.32.88.53,1.38.61.02,0,.04.04.06.06.04.12-.15.22.01.37.11-.28.39-.47.69-.46.09,0,.19-.1.28-.17.43-.28.72-.74.79-1.25.01-.11.05-.22.1-.32.12-.25.26-.48-.05-.7Z"/>
      <path class="cls-1" d="M22.89,20.43c.23-.49.34-1.03.31-1.57-.03-.68-.2-1.35-.48-1.96-.29-.67-.44-1.39-.45-2.12-.08-1.19-.18-2.37-.31-3.55-.05-.42-.15-.84-.23-1.26-.06-.3-.41-.52-.36-.81.08-.41-.31-.47-.41-.74-.09-.26-.29-.49-.26-.79,0-.05.02-.09-.03-.11-.3-.09-.3-.38-.4-.61-.15-.33-.35-.64-.6-.91-.07-.08-.15-.2-.32-.15.12.16.23.29.33.43.11.15.21.31.33.49-.15.07-.33.05-.47-.05-.35-.16-.55-.06-.61.31-.05.3-.03.61.05.9.11.44.21.89.28,1.34.25,1.25.14,2.52.32,3.77.07.52.09,1.05.19,1.57.09.42.14.85.14,1.27.03.69.14,1.38.32,2.04.16.66.44,1.3.81,1.87.21.34.5.61.85.81.33.22.77.13,1.01-.19Z"/>
      <path class="cls-1" d="M13.11,3.85c-.25-.04-.49.11-.55.35-.15.35-.23.73-.23,1.11.03.16.02.32-.04.47-.17.39-.26.8-.28,1.22-.05.31-.09.63-.11.94-.06.27.08.55.33.68.3.04.6-.09.79-.33.05-.08.09-.17.12-.26.17-.39.22-.83.13-1.25-.12-.45-.06-.93.15-1.34.12-.22.17-.47.16-.72,0-.18-.03-.36-.1-.52-.04-.19-.2-.33-.39-.36Z"/>
      <path class="cls-1" d="M38.78,40.24c-.06-1.05-.36-2.07-.89-2.98-.29-.42-.41-.93-.73-1.34-.25-.32-.48-.67-.72-1.01-.1-.14-.16-.31-.33-.39-.03.13.05.21.11.3.5.71.96,1.46,1.37,2.23.11.22.27.42.02.66-.09.09-.04.24-.02.37.1.45.18.9.29,1.35.06.26-.03.54.11.86.05-.29.05-.58.01-.87-.06-.42-.14-.84-.22-1.27-.03-.17-.08-.34.07-.48.06.02.11.07.14.13.23.42.39.87.46,1.34.14.7.19,1.41.16,2.12-.01.09-.06.21.06.24.13.03.14-.11.16-.19.05-.19.05-.38.01-.57-.03-.17-.06-.34-.08-.52Z"/>
      <path class="cls-1" d="M7.45,24.82c.46-1.31.82-2.67,1.38-3.95.03-.07.12-.15,0-.23-.13.08-.15.21-.2.32-.44,1.09-.83,2.19-1.15,3.32-.34,1.07-.81,2.1-1.41,3.06-.2.32-.46.61-.68.92-.19.25-.31.54-.36.84.27-.34.44-.73.71-1.06.76-.96,1.34-2.05,1.72-3.22Z"/>
      <path class="cls-1" d="M9.47,17.78c.07-.02.09-.08.1-.15.12-.48.19-.97.19-1.46,0-.6.1-1.2.31-1.77.23-.66.38-1.34.46-2.03.06-.63.18-1.26.34-1.87.02-.07.08-.15-.06-.2-.1.07-.16.18-.17.3-.09.58-.22,1.15-.27,1.74-.08.74-.24,1.47-.49,2.17-.12.33-.2.67-.23,1.02-.02.74-.09,1.48-.2,2.21,0,0,.02.02.03.03Z"/>
      <path class="cls-1" d="M21.88,9.41c.22.78.39,1.57.5,2.37.11.53.18,1.06.22,1.6.11.74.44,1.42.95,1.96-.03-.19-.11-.37-.23-.52-.28-.39-.47-.83-.56-1.3-.12-1.01-.29-2-.45-3-.21-.95-.53-1.87-.93-2.75-.11.2-.01.33.03.46.15.4.31.8.46,1.2Z"/>
      <path class="cls-1" d="M9.85,23.37c-.37,1.11-.77,2.21-1.17,3.32-.04.1-.1.2-.03.34,1.06-2.33,1.57-4.8,2.43-7.17-.21.29-.37.62-.48.97-.31.83-.48,1.71-.76,2.55Z"/>
      <path class="cls-1" d="M10.59,16.34c-.2,1.01-.34,1.97-.58,2.92-.39.91-.7,1.86-.91,2.83.3-.94.79-1.8,1.04-2.76.35-.95.5-1.97.44-2.98Z"/>
      <path class="cls-1" d="M16.75,6.55c-.2-.38-.34-.79-.42-1.21-.02-.34-.2-.64-.48-.82.17.27.29.57.35.89.1.4.24.79.42,1.16.17.37.28.78.3,1.19.07.87.02,1.74.02,2.62,0,.09.02.18.03.27.13-.77.17-1.56.11-2.34.02-.61-.1-1.21-.35-1.76Z"/>
      <path class="cls-1" d="M19.25,19.37c-.54-2.05-.85-4.15-1.18-6.24.14,2.12.54,4.22,1.18,6.24Z"/>
      <path class="cls-1" d="M6.52,35.06c0-.71.09-1.42.27-2.11.04-.07.02-.16-.03-.22-.19.33-.29.71-.28,1.09-.13.67-.16,1.36-.09,2.04.04.25.04.5-.02.75-.12.36-.14.75-.08,1.13.12,0,.12-.07.12-.11-.01-.52.05-1.05.2-1.55.04-.09.04-.19,0-.27-.12-.23-.15-.49-.1-.74Z"/>
      <path class="cls-1" d="M18.09,2.72c-.24-.23-.51-.43-.79-.6-.04-.03-.1-.02-.13.02-.04.03-.04.09,0,.13.01.01.02.02.04.02.78.52,1.45,1.18,1.97,1.96.12.16.26.31.39.47-.19-.45-.45-.86-.78-1.23-.11-.14-.29-.24-.31-.44-.18-.05-.26-.21-.38-.32Z"/>
      <path class="cls-1" d="M18.48,3.04l-.02-.02h0s.02.02.02.02Z"/>
      <polygon class="cls-1" points="36.12 34.53 36.12 34.53 36.12 34.53 36.12 34.53 36.12 34.53"/>
      <path class="cls-1" d="M34.2,31.78c-.22-.19-.36-.47-.65-.58-.02.17.14.23.23.33.81.76,1.49,1.65,2.03,2.62.07.14.13.33.32.38,0-.05,0-.09-.02-.14-.47-.98-1.12-1.87-1.9-2.62Z"/>
      <polygon class="cls-1" points="33.54 31.19 33.55 31.2 33.55 31.19 33.54 31.19"/>
      <path class="cls-1" d="M4.8,32.24c.1-.37.19-.75.3-1.12.12-.36.27-.71.47-1.03.18-.33.5-.57.6-.95-.82.83-1.34,1.91-1.48,3.07l.11.04Z"/>
      <path class="cls-1" d="M19.63,21.67c-.01,1.32.35,2.61,1.04,3.74-.28-.58-.5-1.18-.65-1.8-.13-.65-.25-1.3-.38-1.94Z"/>
      <path class="cls-1" d="M23.58,31.88c-.03-1.27-.2-2.53-.51-3.75-.12.11-.15.28-.09.43.05.41.14.81.27,1.2.12.33.18.68.17,1.02,0,.37.05.74.17,1.1Z"/>
      <path class="cls-1" d="M16.35,3.99c-.25-.83-.74-1.57-1.4-2.14-.13-.13-.33-.16-.49-.08.84.55,1.49,1.35,1.84,2.29.03-.05.05-.06.05-.07Z"/>
      <path class="cls-1" d="M23.21,15.34c-.05-.07-.06-.19-.22-.25.25.83.58,1.64.98,2.41.11.19.1.45.32.59-.02-.13-.05-.26-.1-.39-.32-.67-.6-1.35-.83-2.06-.03-.11-.08-.21-.14-.3Z"/>
      <path class="cls-1" d="M24.3,18.09h-.02s0,.01,0,.01h.01Z"/>
      <path class="cls-1" d="M21.83,23.85c-.01-.07-.01-.17-.15-.13-.01.04-.04.09-.04.12.13.76.44,1.49.9,2.12.07.09.07.25.23.24,0-.08-.02-.15-.06-.21-.42-.65-.72-1.38-.88-2.14Z"/>
      <path class="cls-1" d="M11.65,11.95c-.28.77-.32,1.61-.12,2.41h.1c-.02-.27-.04-.54-.05-.82,0-.27.02-.54.02-.81,0-.26.16-.52.04-.78Z"/>
      <path class="cls-1" d="M16.11,1.48c-.08-.08-.21-.09-.31-.02.82.55,1.37,1.34,2.16,1.84-.41-.42-.81-.84-1.22-1.25-.2-.2-.42-.38-.64-.57Z"/>
      <path class="cls-1" d="M8.32,32.11c.15-.39.07-.82.19-1.22.12-.42.21-.83.32-1.25-.42.75-.59,1.62-.51,2.47Z"/>
      <path class="cls-1" d="M29.87,27.04c-.3-.87-.9-1.61-1.68-2.09.67.6,1.24,1.31,1.68,2.09Z"/>
      <path class="cls-1" d="M7.93,25.35c-.47.73-.84,1.52-1.1,2.35.48-.73.85-1.52,1.1-2.35Z"/>
      <path class="cls-1" d="M27.05,23.45c.02-.06,0-.12-.04-.16-.41-.55-.69-1.18-.84-1.85-.01-.05-.05-.08-.13-.08-.02.17,0,.34.09.49.13.62.45,1.18.92,1.6Z"/>
      <path class="cls-1" d="M23.87,19.7c-.15-.21-.19-.46-.35-.73-.23.58-.2.67.28,1.14-.04-.17.18-.26.06-.42Z"/>
      <path class="cls-1" d="M36.75,39.37c.1-.66-.01-1.32-.31-1.92,0,.65.32,1.26.31,1.92Z"/>
      <path class="cls-1" d="M18.2,5.2c.15.63.35,1.24.61,1.84-.08-.65-.28-1.27-.61-1.84Z"/>
      <path class="cls-1" d="M31.61,30.11c-.34-.57-.74-1.1-1.12-1.64-.03-.03-.07-.04-.11-.02.36.61.76,1.21,1.18,1.78.07-.06.08-.08.06-.12Z"/>
      <path class="cls-1" d="M8.85,22.83l-.55,1.6c.38-.44.58-1.01.55-1.6Z"/>
      <path class="cls-1" d="M16.95,3.08c.34.35.55.8.91,1.12-.18-.46-.5-.85-.91-1.12Z"/>
      <polygon class="cls-1" points="28.34 38.51 28.34 38.51 28.33 38.5 28.33 38.51 28.34 38.51 28.34 38.51"/>
      <path class="cls-1" d="M28.59,38.31c-.11-.45-.27-.88-.46-1.3-.02.19.02.39.1.56.07.23.16.45.22.67.03.1.04.23-.12.26.16.03.34.07.25-.2Z"/>
      <path class="cls-1" d="M27.02,38.13c-.1-.42-.28-.82-.53-1.18.08.43.26.84.53,1.18Z"/>
      <path class="cls-1" d="M26.48,36.93l.02.02v-.03s-.02,0-.02,0Z"/>
      <path class="cls-1" d="M24.3,18.12c.08.44.3.84.61,1.15-.24-.37-.34-.81-.61-1.15Z"/>
      <path class="cls-1" d="M24.3,18.09h-.01s.01.03.01.03v-.03Z"/>
      <path class="cls-1" d="M33.48,32.29c-.23-.33-.52-.62-.85-.85.23.33.52.62.85.85Z"/>
      <path class="cls-1" d="M23.71,34.12l-.04-.84c-.22.24-.2.62.04.84Z"/>
      <path class="cls-1" d="M29.28,37.86c-.01.23.14.42.04.64-.02.04.07.1.13.1.06,0,.1-.04.11-.1,0,0,0-.02,0-.03-.04-.23-.14-.44-.28-.62Z"/>
      <path class="cls-1" d="M6.8,35.41l.29-.95c-.21.27-.31.61-.29.95Z"/>
      <path class="cls-1" d="M36.35,40.17l.1-.03-.19-.76c-.08.27-.04.55.09.79Z"/>
      <path class="cls-1" d="M30.94,28.46c-.11-.24-.29-.43-.51-.57.07.27.3.41.51.57Z"/>
      <path class="cls-1" d="M37.19,39.28s0-.02,0-.04v.04s0,0,0,0h0s0,0,0,0c.2.14.13.44.36.66-.02-.23-.09-.45-.21-.65-.03-.08-.1-.01-.16,0Z"/>
      <path class="cls-1" d="M33.04,30.67c.15.19.24.44.5.51-.08-.24-.26-.43-.5-.51Z"/>
      <polygon class="cls-1" points="33.54 31.19 33.55 31.19 33.54 31.19 33.54 31.19"/>
      <path class="cls-1" d="M32.46,31.22c-.07-.2-.21-.36-.4-.44.07.19.21.35.4.44Z"/>
      <path class="cls-1" d="M22.92,26.76c.03-.19-.02-.39-.15-.54-.07.21.08.37.15.54Z"/>
      <path class="cls-1" d="M22.77,26.21h0s0,0,0,0h0s0,.02,0,.02h0s0,0,0,0Z"/>
      <path class="cls-1" d="M37.09,38.73c-.04.19.13.33.11.51.07-.24.06-.25-.11-.51Z"/>
      <path class="cls-1" d="M27.38,23.82c-.12-.21-.18-.32-.32-.35,0,.17.12.23.32.35Z"/>
      <path class="cls-1" d="M27.06,23.47h0s0-.01,0-.01h0s0,0,0,0h0s0,.02,0,.02Z"/>
      <path class="cls-1" d="M16.65,4.76c.02.18.01.31.17.37.03-.14-.04-.23-.17-.37Z"/>
      <path class="cls-1" d="M30.24,27.94c-.06.18-.01.37.13.49.05-.16-.06-.28-.13-.49Z"/>
      <path class="cls-1" d="M30.37,28.45h0s.01,0,.01,0h0s0-.01,0-.01v.02s0,0,0,0Z"/>
      <path class="cls-1" d="M26.48,36.93h.01s-.01-.02-.01-.02v.02Z"/>
      <path class="cls-1" d="M26.29,36.49c0,.2.04.34.19.42.02-.16-.05-.32-.19-.42Z"/>
      <path class="cls-1" d="M16.04,78.5c-.13-.04-.27.02-.32.15-.09.15-.17.31-.26.46-.05.09-.09.22-.23.22-.44,0-.63.33-.81.64-.21.35-.39.72-.6,1.08-.14.27-.22.56-.24.86,0,.06.02.13.02.19,0,.23.15.43.37.5.24.07.36-.11.52-.25.3-.32.51-.73.6-1.16.05-.18.17-.34.34-.42.07-.03.17-.02.16-.13.01-.36.12-.71.31-1.02.1-.25.2-.5.28-.76.06-.13.01-.28-.12-.34,0,0-.02,0-.03-.01Z"/>
      <path class="cls-1" d="M16.39,71.69c-.15.01-.28.1-.34.24-.13.22-.25.44-.38.66-.05.08-.08.18-.21.16-.57-.09-.82.3-1.05.71-.13.22-.2.46-.32.69-.22.38-.18.86.09,1.2.17.26.22.25.49.13.45-.2.58-.68.93-.97.11-.09-.05-.24,0-.36.04-.09.08-.17.13-.25.09-.15.16-.31.22-.47.1-.42.28-.81.51-1.17.06-.08.1-.16.13-.25.04-.17-.06-.26-.21-.31Z"/>
      <path class="cls-1" d="M22.71,64.98c-.1.1-.06.23-.06.35-.03.71-.17,1.42-.41,2.09-.62,1.73-1.25,3.46-1.88,5.19-.23.62-.47,1.23-.72,1.89.13-.1.22-.23.26-.39.24-.57.49-1.14.69-1.72.47-1.4,1.01-2.77,1.53-4.14.39-.99.63-2.03.72-3.09,0-.08,0-.16-.12-.18Z"/>
      <path class="cls-1" d="M20.27,51.34c0-.07.06-.19-.1-.22-.08.16-.11.33-.07.5.05,1.52-.11,3.04-.48,4.52-.25,1.35-.37,2.72-.35,4.09.14-.47.19-.97.15-1.46,0-.76.09-1.52.26-2.26.4-1.7.6-3.43.58-5.18Z"/>
      <path class="cls-1" d="M20.66,70.02c.28-.91.5-1.83.67-2.77.16-.87.37-1.74.62-2.59.24-.59.34-1.22.3-1.86-.69,2.52-1.16,5.05-1.78,7.55.15-.06.16-.21.2-.33Z"/>
      <path class="cls-1" d="M16.81,66.81c-.23.32-.4.69-.5,1.07-.18.72-.49,1.41-.9,2.03-.26.38-.42.81-.48,1.26.06-.01.11-.06.12-.11.23-.61.53-1.19.89-1.73.1-.16.17-.34.22-.52.22-.81.56-1.58,1.01-2.3.2-.26.3-.58.3-.9-.2.41-.42.81-.66,1.2Z"/>
      <path class="cls-1" d="M22.18,61.61c.06.01.02-.06.05,0,.37-2.33.49-4.7.35-7.06-.11,1.06.06,2.02-.03,2.98-.1,1.04-.15,2.09-.33,3.12-.04.31-.06.62-.07.94,0,0,.02.02.03.03Z"/>
      <path class="cls-1" d="M19.86,75.88c.87-1.29,1.46-2.76,1.72-4.29-.46,1.47-1.04,2.91-1.72,4.29Z"/>
      <path class="cls-1" d="M19.56,47.18c0-.07-.01-.16-.17-.14.2,1.58.18,3.18-.07,4.75.18-.44.27-.91.29-1.39.04-1.08.02-2.15-.05-3.22Z"/>
      <path class="cls-1" d="M18.92,76.41c-.43.63-.8,1.29-1.11,1.99.46-.61.83-1.28,1.11-1.99Z"/>
      <path class="cls-1" d="M14.93,71.19h0s0,0,0,0h0s0,0,0,0h-.01s0,.01,0,.01Z"/>
      <path class="cls-1" d="M14.78,71.34c-.29.49-.58.98-.86,1.48-.12.15-.19.33-.19.53.44-.63.84-1.3,1.19-1.98.03-.05.03-.12.01-.17-.09,0-.12.09-.15.15Z"/>
      <path class="cls-1" d="M19.09,45.36c.04-.2.04-.41,0-.61-.05.2-.05.41,0,.61Z"/>
      <path class="cls-1" d="M15.96,83.79c-.15.12-.25.28-.29.46-.14.13-.23.3-.26.49.17-.1.28-.27.3-.46h0c.16-.12.25-.3.25-.5Z"/>
      <path class="cls-1" d="M19.06,45.95c.05-.08.05-.18.01-.26v.26Z"/>
      <path class="cls-1" d="M14.71,46.37c-.43.32-.89.6-1.3.96.51-.21.95-.54,1.3-.96Z"/>
      <path class="cls-1" d="M9.78,46.22c-.24.08-.5.08-.73,0-.07-.03-.17-.07-.2.03-.03.13.1.14.19.14.27,0,.55-.02.82-.03,0-.07.11-.19-.08-.14Z"/>
      <path class="cls-1" d="M10.25,46.28h.01s0,0,0,0h0Z"/>
      <path class="cls-1" d="M9.88,46.38c-.01.18-.26.2-.28.45.27-.11.5-.3.65-.55-.14-.03-.23.11-.37.1Z"/>
      <path class="cls-1" d="M9.86,46.37h.01s-.02-.01-.02-.01c0,0,0,.01,0,.02h.02s0-.01,0-.02h-.01Z"/>
      <path class="cls-1" d="M14.9,47.19c.23-.16.42-.38.55-.64-.24.16-.43.38-.55.64Z"/>
      <path class="cls-1" d="M11.51,47.08c-.2,0-.4.09-.54.24.24.04.37-.14.54-.24Z"/>
      <path class="cls-1" d="M10.26,46.28h0s-.01,0-.01,0h0Z"/>
      <path class="cls-1" d="M10.26,46.27c.22-.04.34-.22.5-.34-.2.06-.41.12-.5.34Z"/>
      <path class="cls-1" d="M16.8,40.13c-.11.25-.31.35-.3.58.1-.16.34-.24.3-.58Z"/>
      <path class="cls-1" d="M12.14,47.48c.21-.04.4-.17.5-.36-.2.06-.38.19-.5.36Z"/>
      <path class="cls-1" d="M15.19,47.27c.14.08.2,0,.29-.1-.14-.05-.23-.02-.29.1Z"/>
      <path class="cls-1" d="M15.55,39.16l-.6.64.09.07c.2-.21.47-.36.51-.71Z"/>
      <path class="cls-1" d="M13.14,40.39c-.15.07-.26.19-.32.33.16-.12.27-.17.32-.33Z"/>
      <path class="cls-1" d="M14.97,40.37c-.11.06-.22.1-.22.26.12-.03.21-.13.22-.26Z"/>
      <path class="cls-1" d="M15.22,40.11l.29-.34c-.15.02-.23.11-.29.34Z"/>
      <path class="cls-1" d="M13.69,40.53c-.13.05-.23.17-.26.31.15-.08.24-.13.26-.31Z"/>
      <path class="cls-1" d="M15.95,39.21c-.15.07-.24.13-.25.28.12-.05.21-.16.25-.28Z"/>
      <path class="cls-1" d="M25.87,39.31c-.22-.59-.42-1.19-.64-1.78-.03-.1-.08-.21-.13-.3-.04-.06-.1-.13-.19-.06-.05.04-.06.12-.02.17.35.66.57,1.37.87,2.05.05.12.09.29.29.25-.12-.07-.14-.21-.18-.32Z"/>
      <path class="cls-1" d="M30.17,44.46c.15.57.42.86,1.21,1.28-.45-.38-.86-.81-1.21-1.28Z"/>
      <path class="cls-1" d="M31.39,43.33c.27.61.79,1.07,1.42,1.27-.53-.36-1.01-.78-1.42-1.27Z"/>
      <path class="cls-1" d="M32.66,45.35c-.38-.26-.74-.54-1.08-.85.22.43.62.74,1.08.85Z"/>
      <path class="cls-1" d="M31.41,45.11c-.17-.16-.28-.38-.5-.48.26.39.47.84,1.05,1.02-.15-.21-.34-.39-.55-.54Z"/>
      <path class="cls-1" d="M32.76,43.93c.27.45.65.81,1.11,1.06-.33-.4-.7-.75-1.11-1.06Z"/>
      <path class="cls-1" d="M30.68,44.34c-.03-.1-.06-.18-.17-.17.02.09.1.11.17.17Z"/>
      <path class="cls-1" d="M32.45,43.68q-.08-.24-.26-.33c.05.13.14.24.26.33Z"/>
      <path class="cls-1" d="M26.06,39.63h0s0,0,0,0h0c0,.11-.09.24.07.33-.05-.1-.07-.21-.07-.33Z"/>
      <path class="cls-1" d="M27.67,40.18s0-.05,0-.08c0,.03,0,.05,0,.08Z"/>
      <polygon class="cls-1" points="27.67 40.1 27.67 40.09 27.67 40.09 27.67 40.1"/>
      <path class="cls-1" d="M27.73,40.45c.02-.1-.04-.19-.06-.27-.03.09-.01.2.06.27Z"/>
      <path class="cls-1" d="M23.91,38.39c-.11.05-.06.19-.16.25-.07-.06,0-.2-.13-.22,0,.7.2,1.39.55,1.99-.14-.48-.25-.97-.34-1.47.22.48.42.96.62,1.43.06.14.11.34.35.28-.44-.65-.73-1.4-.83-2.18,0-.04,0-.1-.07-.09Z"/>
      <path class="cls-1" d="M24.72,47.44c-.06-.39-.21-.75-.44-1.06.06.38.22.75.44,1.06Z"/>
      <path class="cls-1" d="M25.3,47.39c-.05-.26-.16-.51-.31-.73.08.25.03.55.31.73Z"/>
      <path class="cls-1" d="M27.72,46.19h0s-.01-.02-.01-.02v.02Z"/>
      <path class="cls-1" d="M27.71,46.17c-.07-.29-.22-.56-.44-.77.17.24.17.59.44.77Z"/>
      <path class="cls-1" d="M26.07,44.41c.12.18-.03.53.36.56-.2-.14-.19-.4-.36-.56Z"/>
      <polygon class="cls-1" points="26.44 44.96 26.44 44.97 26.44 44.96 26.44 44.96"/>
      <path class="cls-1" d="M26.19,46.05v.03s.02-.01.02-.01l-.02-.02Z"/>
      <path class="cls-1" d="M26.19,46.05c-.08-.23-.2-.44-.35-.63.13.43.14.45.35.63Z"/>
      <path class="cls-1" d="M26.73,45.63c-.03-.26-.27-.42-.29-.67-.02.33,0,.37.29.67Z"/>
      <path class="cls-1" d="M26.2,46.08h0s0-.01,0-.01h-.01Z"/>
      <path class="cls-1" d="M26.21,46.08c-.02.24.13.36.31.47-.06-.18-.17-.34-.31-.47Z"/>
      <path class="cls-1" d="M23.88,46.71c.04.19.01.4.2.54-.06-.18,0-.41-.2-.54Z"/>
      <path class="cls-1" d="M24.31,40.89q.05.35.23.5l-.23-.5Z"/>
      <path class="cls-1" d="M24.82,40.67h0s0,0,0,0h0s0,0,0,0h0c-.04.17-.06.34.21.35-.05-.14-.24-.18-.21-.35Z"/>
      <path class="cls-1" d="M23.85,46.33c-.03.11-.02.24.02.35,0-.11.07-.23-.02-.35Z"/>
      <path class="cls-1" d="M23.87,46.67s0,.02,0,.03h0s0,0,0,0v-.02s0-.02,0-.02Z"/>
      <path class="cls-1" d="M38.24,43.66c.11.04.15-.08.21-.15-.53-.04-.86-.48-1.34-.64.27.39.67.66,1.12.79Z"/>
      <path class="cls-1" d="M32.35,41.12c-.31-.17-.49-.52-.87-.61.21.3.44.61.87.61Z"/>
    </g>
  </g>
</svg>