<?xml version="1.0" encoding="UTF-8"?>
<svg id="Layer_2" data-name="Layer 2" xmlns="http://www.w3.org/2000/svg" viewBox="0 0 69.06 86">
  <defs>
    <style>
      .cls-1 {
        fill: #010101;
      }
    </style>
  </defs>
  <g id="Layer_1-2" data-name="Layer 1">
    <g>
      <path class="cls-1" d="M68.82,21.37s-.03-.05-.04-.08c-.23-.56-.56-1.06-.98-1.49-1.55-1.57-3.34-2.88-5.3-3.89-.12-.06-.21-.17-.24-.3-.15-.46-.36-.89-.64-1.29-.4-.62-.9-1.16-1.48-1.6-.67-.54-1.32-1.12-2.03-1.63-.63-.56-1.45-.84-2.29-.78-.59.08-1.19.05-1.79.1-.06,0-.12.06-.16-.02-.1-.19-.17-.07-.28,0-.16.11-.23.3-.36.43-.43.41-.85.82-1.28,1.23-.03.03-.06.08-.09.04-.17-.19-.43-.11-.63-.24-.32-.2-.66-.35-1.02-.47-1.55-.55-3.13-.99-4.74-1.32-.12-.02-.25,0-.33-.13-.13-.19-.27-.38-.41-.58.16-.07.34-.12.52-.13.3-.01.56-.22.63-.51.13-.37.24-.74.37-1.11.12-.28.12-.59.02-.88-.27-.73-.71-1.38-1.29-1.91-.69-.6-1.47-1.09-2.31-1.45-.12-.05-.28-.07-.35-.15-.16-.17-.28-.1-.42,0-.39.27-.77.56-1.13.88-.08.09-.22.11-.32.03,0,0-.01-.01-.02-.02-.22-.18-.43-.37-.66-.53-1.38-.98-2.98-1.62-4.66-1.85-.13-.02-.2-.02-.12-.18.13-.19.08-.44-.11-.57-.03-.02-.06-.03-.09-.05-.5-.24-.98-.51-1.46-.79-.15-.1-.33-.14-.51-.12-.48.09-.95.23-1.41.42-.37.16-.75.3-.79.79,0,.03-.02.06-.03.09-.27.58-.46,1.2-.56,1.84-.02.12-.08.23-.18.3-.61.48-1.24.93-1.82,1.45-2.24,1.95-4.11,4.29-5.52,6.91-.04.11-.16.17-.27.14-.41-.03-.83-.02-1.24.03-.58.07-1.15.22-1.69.44.05-.34.1-.63.13-.92.05-.38-.06-.51-.45-.56-.22-.03-.43-.03-.65-.08-.75-.25-1.57-.15-2.24.28-.56.35-1.07.77-1.52,1.25-.04.05-.1.04-.15.05-.43.05-.8.3-1.03.66-.29.5-.71.92-1.02,1.42-.06.08-.15.14-.25.13-.38.04-.76.12-1.12.25-2.74.9-5.26,2.34-7.43,4.24-.08.07-.12.08-.2.01-.2-.2-.52-.22-.74-.05-.04.03-.07.08-.14.06-.18-.05-.37-.02-.53.09-.31.14-.6.32-.86.53-.05.04-.1.11-.15.09-.22-.09-.23.07-.26.2-.11.5-.13,1.02-.08,1.53.01.13.02.25-.15.3-.13.04-.22.15-.25.29-.11.37-.19.74-.22,1.12.04.84.19,1.68.44,2.48.02.06.05.16.03.17-.17.11-.05.22-.01.32.24.46.58.85,1.01,1.15.92.69,1.93,1.25,3.01,1.67.09.04.2.05.29.03.74-.17,1.48-.34,2.22-.51.73-.07,1.44-.26,2.1-.56.11-.07.14-.02.14.1,0,.29,0,.58-.02.87.02.28.07.55.14.82.03.32.39.42.63.58.15.07.32.08.47,0,.47-.12.96-.19,1.44-.3.27-.11.58.01.69.28.02.05.03.1.04.15.04.16.07.31.12.47.09.29.32.51.61.58.15.04.29.1.42.18.41.23.8.49,1.16.79.1.08.2.15.33.24-.06-.23-.05-.24-.15-.35-.51-.53-1.13-.93-1.81-1.19-.14-.04-.25-.14-.31-.27-.08-.17-.13-.34-.17-.52-.01-.24-.19-.45-.43-.5-.08-.02-.16-.05-.14-.17.1-.85.18-1.69.34-2.53.03-.15.08-.17.21-.1.45.25.9.51,1.32.8.12.07.22.16.3.27-.19.03-.32.19-.33.38-.04.3.09.6.34.79.06.05.13.07.18.14.22.33.46.66.71.96.05.05.07.14.03.21-.11.34-.18.68-.2,1.04-.03.09,0,.19.05.27.06-.43.15-.86.27-1.29.16.13.26.24.06.39-.03.02-.04.08-.06.12-.1.31-.16.63-.15.95-.01.29.13.56.38.7.77.44,1.58.81,2.43,1.1,2.44.86,4.96,1.49,7.51,1.9.49.08.98.17,1.47.23.3.03.3,0,.23.3-.62,2.54-1.39,5.05-2.32,7.49-.43,1-.8,2.03-1.11,3.07-.04.15-.02.3.06.44.32.6.75,1.15,1.26,1.6.24.22.52.39.82.5.05.02.11.01.12.08.02.15.13.19.24.2.12.01.15.06.12.18-.13.52-.2,1.06-.23,1.59-.1.68-.07,1.38.1,2.05.01.06,0,.12,0,.18-.11,1.48.03,2.97.42,4.4.29.79.52,1.6.71,2.43.08.73.19,1.46.35,2.18.09.36.14.74.13,1.12-.02,1.01-.06,2.02-.11,3.03.01.89-.13,1.78-.43,2.62-.41,1.03-.64,2.12-.7,3.23-.17,1.62-.16,3.25.01,4.87.22,1.65.79,3.23,1.68,4.64.85,1.2,1.85,2.28,2.98,3.22.37.33.86.48,1.35.42.81-.09,1.62-.24,2.42-.43.58-.11,1.1-.4,1.67-.56,1.55-.47,2.98-1.28,4.17-2.36.93-.71,1.63-1.69,2.01-2.8.12-.4.28-.78.4-1.18.59-1.78.95-3.63,1.09-5.49.1-1.49,0-2.99.05-4.49.02-1.7-.08-3.41-.32-5.1-.29-2.31-.63-4.62-1.02-6.92-.31-1.85-.74-3.69-1.28-5.49-.03-.09-.05-.18-.07-.27-.02-.12.15-.1.18-.24-.18.13-.24.07-.29-.1-.14-.49-.3-.97-.46-1.45-.04-.12-.05-.24-.04-.36,0-.08.01-.11.09-.11.27-.03.55-.03.82.02.24.09.5,0,.64-.21.11-.14.2-.25.38-.09.04.02.09.02.13,0,.41-.12.79-.34,1.1-.64.03-.03.04-.12.12-.06.06.05.13.09.2.01.06-.07.02-.15,0-.22-.15-.39-.31-.77-.46-1.16-.69-1.92-1.24-3.89-1.63-5.89-.29-1.3-.46-2.62-.53-3.94,0-.16.02-.24.2-.25.39-.04.78-.1,1.16-.16.48-.07.96-.15,1.44-.23.33-.05.65-.12.99-.18-.01.13-.14.17-.16.31.18-.21.42-.37.69-.43,1.51-.3,3.01-.68,4.48-1.14,2.79-.83,5.46-2.03,7.93-3.58.21-.1.39-.25.52-.45.19-.34.42-.65.7-.91.4-.37.77-.77,1.12-1.19.05-.07.13-.13.22-.16.04.1-.02.21.05.31.04-.06.06-.14.06-.22,0-.09.04-.15.14-.14.18,0,.36-.05.53-.12.76-.19,1.49-.47,2.19-.82.08-.04.18-.04.26-.02.54.16,1.13.07,1.61-.23.45-.28.87-.61,1.26-.96.75-.58,1.24-1.43,1.37-2.36.01-.52.12-1.04.12-1.56,0-.22.1-.51-.22-.62ZM62.25,16.5c.04-.13.07-.26.11-.42.57.31,1.1.66,1.67,1.04-.45.13-.83.23-1.21.35-.13.04-.21-.04-.29-.09-.17-.11-.4-.19-.47-.35-.08-.17.13-.35.19-.54ZM63.9,18.64c-.77.23-.77.24-1.46-.16-.28-.16-.55-.31-.88-.5.41-.12.76-.23,1.11-.33.1-.03.17.05.25.1.34.25.69.48,1.05.69.11.09.13.15-.05.21ZM61.36,17.29c.21.02.43-.03.61-.14.04-.03.07-.01.1.01.18.11.36.24.52.38-.37.11-.72.22-1.07.32-.05.01-.11.01-.16-.01-.3-.15-.58-.32-.85-.52.28-.02.57-.04.85-.06ZM52.15,12.19c.51-.44.99-.92,1.44-1.42.05-.05.11-.08.18-.08.98-.1,1.98-.12,2.96-.04.18.02.34.08.49.17,1.03.67,2,1.43,2.9,2.27.27.24.2.6.23.93-.55-.43-1.08-.87-1.66-1.24.46.38.9.79,1.38,1.13.43.3.35.71.39,1.18-.55-.5-1.15-.94-1.79-1.32.23.18.47.36.7.54.43.31.83.65,1.2,1.02.12.12.14.3.04.44-.06.1-.15.18-.25.24-.29.19-.6.35-.87.56-.17.13-.35.06-.54.03-.62-.09-1.23-.26-1.85-.38-.25-.05-.5-.15-.71-.29-.43-.28-.89-.52-1.36-.72-.53-.24-1.06-.48-1.59-.72-.18-.06-.33-.19-.42-.36-.27-.57-.59-1.11-.94-1.63-.09-.13-.07-.2.04-.3ZM50.89,11.92c-.41.15-.83.28-1.25.39h-.02c-.22.08-.45.14-.69.18-.03,0-.06,0-.09-.01-.34-.15-.68-.3-1.06-.47q.33-.16,1.2.11c-.19-.14-.39-.16-.53-.28.77-.4,1.7-.37,2.44.09ZM48.49,13.28c-.22-.12-.44-.23-.71-.36.35-.12.7-.22,1.06-.3.12-.02.22.06.32.1.21.09.43.2.68.31-.34.17-.68.21-.98.38h0c-.14,0-.27-.05-.38-.13h0ZM47.7,11.46c.09-.26.34-.42.62-.38.37.11.74.22,1.12.32v.05c-.35.09-.71.19-1.06.28-.25.06-.43-.11-.65-.19-.03-.01-.03-.05-.02-.08ZM47.61,11.67c.05-.1.12-.03.17,0,.08.03.17.07.25.1v.05c-.1.03-.19.06-.28.08-.06.02-.14.06-.18-.02-.04-.07.01-.15.04-.21ZM47.4,12.5c.1-.61.09-.52.58-.31.23.1.45.2.67.3.01,0,.02.02.06.07-.35.1-.67.2-.99.27-.23.05-.36-.1-.32-.34ZM40.49,4.76c0-.07.05-.13.1-.17.43-.33.86-.66,1.29-1.01.13-.12.33-.15.49-.07.64.27,1.24.6,1.81.99.21.14.41.29.61.43.06.05.11.11.12.19.06.23.1.47.09.71-.34-.23-.65-.45-.97-.66l-.04.04c.26.19.52.38.77.56.3.22.32.3.17.69-.37-.27-.76-.51-1.17-.72.15.11.3.21.45.32.24.17.48.33.71.51.19.22.19.54.01.76-.08.06-.11-.02-.14-.06-.33-.34-.7-.65-1.1-.91-.11-.08-.23-.13-.36-.15.11.08.22.16.32.23.36.25.7.53,1.01.84.14.13.15.35.02.5-.03.04-.07.07-.12.08-.02,0-.05-.05-.05.04.03.25-.12.49-.36.57-.46.16-.93.3-1.4.45-.04.01-.09,0-.14,0-.6-.14-1.18-.34-1.74-.6-.22-.12-.2-.34-.24-.52-.02-.08-.05-.16-.09-.24-.06-.15-.11-.3-.14-.46-.15-.78-.13-1.58.06-2.35ZM36.4,2.25c.13.07.09.11.02.18.09-.07.2-.09.31-.05-.07.02-.13.07-.15.14-.08.19-.24.33-.43.38-.1.04-.23,0-.27-.11-.04-.08.09-.1.14-.14.11-.08.23-.14.35-.21-.16.02-.31.09-.43.19-.21.14-.34,0-.49-.1-.06-.04-.03-.08.02-.1.29-.17.57-.36.93-.17h0ZM35.85,2.14c-.18.09-.35.18-.51.26-.07.03-.15,0-.18-.06-.04-.08.05-.1.09-.13.08-.04.15-.1.2-.18.14-.01.29.02.41.11h0ZM34.88,1.95c.05-.08.12-.03.19-.02.13,0,.25.04.36.1-.1-.01-.16.06-.23.11-.09.06-.16.14-.29.11-.07-.02-.11,0-.12.1-.02.17-.22.17-.36.24.15-.21.3-.42.45-.64h0ZM30.34,2.82c.15-.65.45-1.26.65-1.89.03-.07.09-.13.17-.15.52-.21,1.05-.39,1.6-.51.15-.02.31.02.43.11.46.31.95.57,1.45.78q-.29.29-.59.11c-.19-.11-.37-.21-.56-.31l-.03.05c.19.11.38.21.57.33.09.06.28.05.15.28-.1.17-.04.2-.27.09-.09-.04-.18-.09-.27-.13-.01,0-.03,0-.07.01.16.1.3.18.44.27.05.04.18.05.12.15-.05.08-.13.19-.26.09-.04-.03-.08-.05-.13-.07.01.11.16.11.14.2-.02.09-.13.12-.19.19-.3.35-.58.28-.87,0-.04-.05-.1-.07-.16-.05l.52.39c-.16.11-.27.25-.47.26-.07,0-.05.12-.13.17-.12.06-.24.1-.37.14-.37.23-.8.36-1.24.38-.14-.01-.28-.07-.39-.16-.22-.17-.31-.47-.22-.73h0ZM12.8,14.37c.33-.48.71-.92,1.02-1.42.05-.08.13-.13.23-.14.33-.1.63-.28.88-.52.48-.41.98-.79,1.5-1.15.19-.1.41-.14.62-.12.37-.02.74,0,1.1-.01.16.01.31.05.45.12.09.03.04.08.03.13-.13.44-.3.87-.5,1.28-.05.14-.22.09-.35.19l.25-.02c.03.27-.06.39-.34.41-.27.02-.54.1-.78.24.32-.06.58-.1.83-.15.17-.04.2.02.2.19,0,.26-.09.4-.36.43-.14.02-.27.07-.38.16.17-.04.34-.09.51-.13.13-.04.16,0,.12.13-.04.2-.2.35-.4.38-.27.04-.52.14-.75.28.3-.04.58-.18.88-.22.04.06,0,.1-.03.12-.33.33-.75.55-1.21.61-.7.07-1.41.12-2.1.25-.06.02-.12.02-.18,0-.43-.24-.87-.45-1.32-.65.09-.01.18-.03.27-.04.04,0,.08-.02.08-.07,0-.05-.05-.05-.09-.05-.1,0-.2,0-.3,0-.02-.09.06-.15.11-.21ZM.92,20.31c.01-.07.05-.13.11-.17.38-.31.8-.57,1.24-.79.2-.1.37.1.54-.02.02.05.04.1.05.15.02.08-.04.11-.1.13-.24.09-.46.2-.66.35.19-.09.39-.17.58-.26.15-.07.23-.08.25.13.02.24.13.48-.25.56.34-.09.41-.02.37.33-.01.09-.04.18-.07.26-.08.14-.12.31-.09.47.04.16-.06.26-.2.32-.45.24-.95.38-1.47.42-.1,0-.16-.05-.17-.11,0-.13-.11-.22-.12-.33-.06-.48-.06-.97,0-1.45ZM9.26,27.64c0,.07.04.18-.04.21-.13.06-.28.09-.42.1-.08,0-.04-.1-.04-.15,0-.62,0-1.24,0-1.87.01-.07,0-.14-.06-.2-.01.07-.02.13-.03.2,0,.64,0,1.27,0,1.91,0,.13-.03.2-.16.22-.07,0-.14.02-.2.04-.15.04-.2,0-.21-.17,0-.66-.02-1.32-.03-1.98.01-.12-.01-.24-.06-.34-.01.14-.02.22-.02.3-.03.7-.01,1.4.04,2.09.02.11-.03.15-.13.16-.83.13-1.66.31-2.47.51-.19.05-.22-.02-.24-.18-.07-.68-.05-1.36-.06-2.05,0-.18,0-.35-.01-.53,0-.11.02-.16.14-.18.39-.07.39-.07.38.32-.01.55.01,1.11.04,1.66,0,.1.03.2.05.34.05-.09.07-.2.06-.3-.01-.63-.01-1.26-.04-1.89-.01-.24.14-.18.26-.21.17-.04.17.08.16.19-.01.58-.02,1.15-.03,1.73,0,.22.01.44.06.66.06-.79.08-1.58.05-2.37,0-.16.01-.23.19-.24.2-.01.19.09.19.22,0,.63,0,1.26.05,1.89,0,.11.02.22.08.31,0-.12.02-.21.01-.29-.03-.67,0-1.35-.08-2.02,0-.03-.01-.08,0-.09.16-.07.34-.09.51-.06.13,0,.08.13.08.2,0,.68-.02,1.35.04,2.03,0,.06.01.12.03.2.1-.08.07-.18.07-.26,0-.64-.02-1.27-.02-1.91,0-.05,0-.11,0-.16,0-.08.02-.14.11-.14.11,0,.09.08.09.15-.04.6,0,1.2.01,1.8-.01.19.02.38.1.56,0-.33,0-.66,0-.98,0-.45-.02-.89-.04-1.33,0-.13.02-.19.16-.21.44-.08.43-.09.44.35,0,.5.02,1,.04,1.5,0,.08.01.16.05.23.07-.08.05-.17.04-.25-.01-.58-.03-1.15-.05-1.73-.02-.1.04-.21.15-.23.01,0,.02,0,.03,0,.14-.02.29-.06.42-.1.12-.04.34.23.33.4-.01.21-.03.41-.05.62-.05.45.06.89.04,1.33ZM10.18,27.66c0,.67-.05,1.33-.14,1.99-.02.19,0,.38,0,.63-.33-.39-.11-.83-.25-1.27v.9c-.14-.24-.06-.51-.18-.78-.02.23-.01.46.01.69-.16-.09-.14-.23-.15-.35-.02-.52,0-1.04.04-1.56.02-.4.02-.79,0-1.24.25.23.47.47.68.73.07.08-.01.16-.01.24h0ZM10.85,30.08s-.06,0-.09.01c-.47.1-.48.1-.46-.38.03-.71.12-1.42.11-2.13,0-.3.17-.28.32-.34.48-.2.47-.2.42.32-.07.63-.11,1.27-.16,1.9-.02.07,0,.14.04.18.05-.15.07-.3.07-.45.05-.67.1-1.35.14-2.02,0-.11.05-.17.14-.17.13,0,.06.12.05.18-.1.81-.17,1.62-.19,2.43,0,.39,0,.39-.39.46h0ZM11.69,29.94s-.07.02-.11,0c-.08-.04-.03-.11-.02-.16.05-.88.1-1.76.16-2.64,0-.04,0-.07,0-.11-.11.38-.17.76-.17,1.16-.04.55-.07,1.1-.06,1.65,0,.07,0,.15-.1.14-.1,0-.06-.08-.06-.14.07-.89.14-1.79.21-2.68,0-.07,0-.15.04-.2.06-.07.16-.1.25-.08.09.03.03.14.02.2-.11.74-.17,1.49-.18,2.24,0,.15,0,.29.03.43.01.05.06.12-.01.16h0ZM11.81,29.79c-.02-.98.04-1.96.17-2.93.01.98-.05,1.96-.17,2.93h0ZM12.49,27.21c-.14.69-.24,1.39-.3,2.09-.01.15-.01.31-.02.46,0,.06,0,.13-.09.12-.06,0-.11-.05-.11-.11,0,0,0-.01,0-.02,0-.09.01-.18.02-.28h0c0-.45.04-.9.1-1.35.08-.33.14-.66.17-1,0-.07.04-.16.15-.13.11.03.09.13.07.21h0ZM14.8,29.36c-.1-.13-.32-.12-.36-.32-.02-.08-.07-.16-.08-.24-.03-.16.01-.26.2-.28.22-.02.27-.14.15-.33-.11-.16-.25-.29-.41-.39-.58-.41-1.2-.76-1.85-1.05,0-.09.11-.06.12-.15-.21-.1-.46-.11-.68-.04-.51.12-1,.29-1.48.5-.14.06-.23.06-.32-.08-.1-.15-.22-.29-.36-.42-.17-.13-.21-.38-.08-.55.05-.1.13-.19.17-.3.05-.1.03-.24-.11-.21-.15.03-.17-.05-.22-.13-.11-.19-.28-.35-.49-.44-.19-.07-.32,0-.33.2,0,.13-.1.07-.15.07-.49,0-.98.04-1.47.06-.92.02-1.84.13-2.73.33-.1.01-.16.11-.15.2,0,.01,0,.03.01.04.14.7.19,1.41.16,2.13,0,.15.02.29.06.43.02.05.05.11.11.11.07,0,.06-.08.07-.13.05-.56.04-1.12-.01-1.68-.02-.23-.05-.46-.08-.69-.01-.09-.01-.16.1-.16.12,0,.07.1.07.16-.02.64,0,1.27.05,1.91,0,.1.03.2.09.27,0-.11.01-.18.01-.26,0-.62-.01-1.24-.02-1.87,0-.05,0-.11,0-.16,0-.09.05-.12.13-.12.09,0,.08.08.08.14,0,.35-.01.71-.01,1.06-.03.55.01,1.11.13,1.65.01.05.03.1-.04.11-.19.02-.37.14-.56.06-1.16-.46-2.24-1.1-3.19-1.89-.15-.13-.29-.28-.43-.42-.09-.1-.24-.18-.11-.36.02-.03-.02-.12-.04-.17-.26-.84-.43-1.69-.53-2.56-.01-.09,0-.18,0-.34.1.18.16.32.25.44.71,1.03,1.78,1.75,2.99,2.04.16.04.31.08.47.12.06.02.13.06.16-.02.04-.09-.05-.11-.11-.14-.53-.23-1.05-.47-1.56-.74-.67-.33-1.25-.83-1.67-1.45-.18-.25-.28-.55-.3-.86,0-.1.02-.2.07-.29.07-.1.13-.18.22-.01.09.15.25.26.43.27.72.18,1.49-.07,1.97-.64.24-.28.56-.48.91-.57.36-.12.73-.22,1.09-.35-.6.09-1.18.25-1.74.47.26-.35.47-.64.7-.92.12-.11.27-.18.43-.22.39-.16.78-.31,1.17-.48-.52.15-1.02.34-1.52.55.04-.37-.05-.74-.25-1.05-.1-.14-.05-.16.04-.23.89-.68,1.83-1.3,2.8-1.86,1.63-1,3.4-1.76,5.25-2.26.12-.03.24-.02.35.02.38.15.75.32,1.11.5.1.05.21.08.25.21.03.1.15.08.25.06.42-.06.85-.12,1.27-.19.32-.04.64-.05.96,0,.56.04,1.12,0,1.66-.12.45-.18.91-.33,1.38-.44.48-.05.95-.15,1.42-.28-.62.04-1.22.18-1.84.27.36-.26.58-.7,1.09-.74.37-.04.74-.12,1.11-.21-.48.03-.95.09-1.41.19.03-.22.1-.43-.17-.57.47-.15.92-.18,1.35-.31-.35,0-.7.06-1.04.15-.27.07-.27.06-.27-.21.03-.2-.04-.4-.19-.54.45-.22.93-.37,1.43-.43.46-.06.91-.1,1.37-.11.19-.01.18.05.12.19-.16.34-.27.7-.32,1.08-.01.12,0,.24,0,.37,0,.04.03.09.08.09.06,0,.07-.05.08-.09.01-.07.02-.14.03-.2.19-.81.53-1.58.99-2.27,1.37-2.28,3.07-4.35,5.05-6.13.59-.54,1.15-1.1,1.77-1.61.11-.09.18-.11.25.02.22.45.62.45,1.03.43.67-.05,1.33-.15,1.98-.3.11-.02.23-.09.35,0,.06.04.12-.01.16-.06.04-.05.08-.11.11-.18.23-.46.6-.82,1.06-1.04.09-.05.17-.07.23.01.07.11-.06.11-.11.15-.26.14-.5.33-.7.55.24-.15.48-.31.72-.46.29-.18.32-.17.59.09-.24.15-.47.32-.67.51.19-.12.38-.24.58-.36.21-.09.46-.02.6.17.04.08-.03.11-.07.16-.27.31-.54.62-.82.94-.05.05-.09.12-.12.18.35-.3.67-.64.96-1,.13-.16.22-.18.38-.04.23.2.48.38.73.56.13.09.13.16.01.26-.37.33-.73.68-1.1,1.02l.08.08c.16-.15.32-.31.48-.46.21-.21.42-.41.62-.62.08-.08.14-.09.23-.01.27.24.54.48.82.71.09.08.1.14.02.23-.04.05-.08.11-.11.17.08-.13.3-.17.29-.3-.01-.11-.19-.2-.29-.3-.2-.18-.39-.37-.6-.54-.15-.12-.13-.2,0-.32.2-.19.38-.4.57-.59l-.05-.05c-.19.2-.39.39-.57.6-.12.14-.21.14-.36.02-.24-.21-.51-.4-.77-.59-.11-.08-.13-.14-.04-.25.16-.16.27-.36.33-.59.97.31,1.89.75,2.76,1.28.25.14.49.29.72.46.07.06.12.1.08.21-.2.59-.3,1.2-.31,1.83,0,.05-.03.1-.05.15h0c-.28.35-.57.68-.88,1.01-.06.06-.1.17-.22.09.05.12-.04.18-.11.25-.4.42-.8.85-1.2,1.27-.09.1-.18.2-.27.31.88-.83,1.72-1.7,2.51-2.62.08-.09.14-.19.18-.3.1.14.06.32.09.48.04.33.12.65.25.95.06.1.04.23-.05.3-.69.69-1.39,1.39-2.07,2.1-.11.11-.17.13-.24-.03-.1-.19-.21-.37-.33-.55.07.21.16.42.29.61.08.1.05.24-.05.32,0,0,0,0,0,0-.55.57-1.09,1.14-1.6,1.75.11-.11.22-.21.33-.32.44-.44.87-.88,1.3-1.34.12-.12.17-.13.25.03.15.3.31.6.47.9.07.1.05.23-.05.3,0,0,0,0,0,0-.35.34-.68.68-1.02,1.03-.08.07-.15.15-.19.25l.05.05c.16-.18.32-.37.49-.54.24-.25.49-.48.74-.73.08-.08.13-.08.18.03.13.27.26.54.39.81.05.11.01.17-.06.24-.23.23-.44.47-.63.74.21-.2.42-.4.61-.61.14-.16.2-.12.27.06.13.31.28.61.42.92.13.3.13.3-.07.54.11,0,.15-.17.25-.1.07.05.08.16.12.24.09.2.17.41.28.6.1.18.11.33-.08.45-.05.04-.09.1-.12.16.18-.12.36-.25.52-.4.39-.39.82-.74,1.23-1.11.1-.1.16-.09.22.03.1.18.2.36.32.53.08.12.06.2-.06.29-.49.39-.95.8-1.41,1.23-.09.07-.17.16-.23.25,1.01-.81,1.97-1.68,3.06-2.42-.06-.03-.14-.01-.18.04-.3.21-.61.42-.9.64-.13.1-.18.08-.25-.06-.09-.19-.19-.38-.3-.57-.06-.07-.04-.18.03-.23,0,0,0,0,.01,0,.42-.4.85-.8,1.27-1.21.14-.14.17-.02.22.07.25.48.5.95.74,1.43.02.03.04.07.07.09-.2-.52-.45-1.02-.72-1.5-.11-.19-.12-.33.06-.47.1-.07.15-.18.15-.29-.12.12-.2.21-.28.3-.08.09-.12.08-.19-.02-.15-.25-.3-.5-.46-.74-.07-.11-.04-.18.04-.25.26-.23.49-.48.68-.76-.21.2-.44.4-.64.62-.14.14-.25.22-.4-.01.2.23.05.35-.1.48-.38.34-.75.68-1.12,1.03-.12.11-.17.1-.26-.04-.22-.35-.44-.7-.68-1.04-.07-.07-.07-.19,0-.26.01-.01.02-.02.04-.03.46-.42.9-.85,1.36-1.28.13-.12.27-.23.4-.34l-.06-.06c-.06.05-.12.1-.18.16-.52.48-1.05.97-1.57,1.46-.12.11-.17.09-.26-.03-.13-.21-.28-.41-.43-.6-.1-.12-.06-.19.03-.28.49-.49.97-.99,1.45-1.49-.06.05-.13.1-.19.16-.43.41-.87.82-1.3,1.24-.12.12-.2.14-.3-.01-.06-.1-.15-.18-.24-.24-.03.06.02.08.05.12q.27.36-.04.66c-.18.17-.35.34-.53.52-.09.09-.14.09-.2-.03-.17-.33-.34-.65-.52-.97-.05-.07-.04-.17.03-.22.63-.65,1.27-1.3,1.9-1.95.06-.06.11-.11.17,0,.04.07.13.07.2.1.42.16.83.35,1.22.58.1.05.2.09.3.12-.02.03-.18.05-.01.12.1.04.21.06.31.06.24.01.47.06.69.14.3.06.61.07.91.01.05,0,.11-.01.16-.03.27-.09.44.03.57.26.06.11.07.16-.05.2-.18.05-.34.14-.49.26.17-.07.35-.15.52-.22.07-.05.17-.03.21.04,0,0,.01.02.01.03.86,1.34,1.55,2.78,2.04,4.3.12.47.21.95.28,1.43.03-.43.06-.86.09-1.29.01-.15.04-.31.04-.46,0-.17.06-.17.19-.1,1.04.55,2.07,1.1,3.11,1.65.05.03.09.08.19.06-.55-.32-1.07-.64-1.6-.93-.54-.3-1.09-.57-1.64-.84-.16-.05-.25-.21-.21-.37.06-.52.15-.58.62-.36.37.17.74.34,1.12.52-.03-.09-.18-.08-.14-.2.44-.1.88-.24,1.31-.38.39-.13.78-.25,1.17-.39-.39.07-.78.17-1.15.31-.15.06-.32.05-.46-.04-.2-.12-.42-.21-.67-.33.24-.1.5-.18.76-.24.37-.11.73-.22,1.09-.37.24-.06.49.03.63.24.32.53.64,1.05.97,1.57.1.13.21.26.33.38-.07.03-.2-.07-.22.05-.03.12.08.17.17.22.6.33,1.22.62,1.85.87.35.15.71.29,1.07.43.28.09.5.31.61.58.09.23.29.4.54.46.52.14,1.05.25,1.55.44.47.15.97.2,1.46.15.25-.02.49.04.7.17.23.14.46.26.75.42-.92.27-1.84.59-2.73.96.09-.02.17-.04.26-.07.79-.25,1.58-.49,2.37-.75.15-.06.32-.04.45.05.36.21.72.41,1.08.61.08.03.15.08.19.16-.81.23-1.62.45-2.43.67.06.05.15.06.23.02.72-.19,1.44-.38,2.16-.57.15-.05.32-.03.46.06.24.15.49.28.74.42.06.03.12.09.2.07-.33-.21-.65-.41-1.02-.64.59-.15,1.17-.36,1.73-.61-.18.05-.37.09-.55.16-.16.08-.35.06-.49-.05h0c-.33-.31-.72-.53-1.09-.83.25-.13.53-.15.76-.27.32-.15.7-.1.96.15,1.09.71,2.1,1.55,3.01,2.49.39.42.72.9.98,1.41.13.25.14.54.02.8-.43,1-1.04,1.91-1.78,2.69-.07.07-.09.09-.18,0-.2-.14-.43-.23-.67-.27-.23-.09-.48-.04-.65.14-.63.48-1.38.8-2.17.91-.31.1-.64.15-.97.14-.08-.01-.14.06-.19.11-.41.37-.84.72-1.29,1.03-.3.23-.57.49-.86.73-.29.27-.56.56-.81.87-.13.13-.27.25-.43.34-1.35.78-2.78,1.42-4.26,1.9-2.64.9-5.35,1.57-8.1,2.01-2.01.34-4.04.59-6.07.76-2.85.24-5.72.31-8.58.21-4.36-.17-8.69-.82-12.91-1.93-.79-.21-1.58-.43-2.38-.64-.13-.04-.24-.12-.31-.24-.38-.53-.77-1.05-1.16-1.58h0ZM41.93,14.12s.03.05.04.08c0,.07-.06.1-.1.13-.41.38-.81.75-1.22,1.13-.1.09-.15.1-.21-.04-.12-.3-.24-.6-.37-.89-.05-.08-.03-.19.05-.24.37-.32.74-.65,1.1-.98.07-.07.13-.13.21,0,.16.27.32.54.49.81ZM41.56,13.02c.43-.39.86-.79,1.28-1.19.1-.09.15-.07.21.03.15.25.3.5.45.75.05.06.05.15-.01.2,0,0,0,0,0,0-.44.42-.88.83-1.32,1.25-.02.02-.04.04-.07.05-.06,0-.08-.05-.1-.09-.16-.26-.31-.53-.47-.79-.05-.06-.05-.15.01-.2,0,0,.01,0,.02-.01ZM41.23,13.19c-.38.34-.75.68-1.12,1.02-.02.02-.05.04-.06.05-.07,0-.08-.04-.1-.08-.19-.41-.37-.82-.56-1.23-.03-.06-.01-.14.05-.18.3-.3.61-.6.91-.91.08-.08.13-.08.19.02.24.37.48.75.72,1.12.05.05.05.14,0,.19,0,0-.01,0-.02.01h0ZM40.29,11.78c-.29.28-.58.57-.86.86-.09.09-.14.1-.2-.03-.13-.27-.26-.54-.39-.81-.04-.05-.03-.12.01-.17.27-.27.55-.54.82-.8.03-.02.05-.04.08-.06.03.03.06.07.09.1.16.22.31.44.46.66.06.06.06.16,0,.22,0,0-.01.01-.02.02h0ZM42.47,75.01c-.06.31-.13.62-.19.92,0,.06-.02.12-.05.18-.35.67-.74,1.32-1.18,1.94-.08.11-.19.21-.31.27-.15.08-.34.06-.48-.05-.16-.11-.04-.24,0-.35.21-.5.24-1.06.09-1.58-.04-.12-.02-.26-.05-.38-.03-.28-.29-.48-.57-.44,0,0-.01,0-.02,0-.09,0-.19-.02-.28-.03,1.03-.94,2.05-1.85,3.16-2.72.06.75.02,1.5-.12,2.24h0ZM41.71,51.23c.25.86.48,1.73.68,2.6.47,2.04.8,4.11,1.1,6.18.28,1.94.57,3.87.72,5.82.03.36.05.73.07,1.11-.43-.2-.73-.17-.89.22-.27.51-.67.93-1.16,1.23-.17.13-.33.26-.55.43.07-.47.13-.88.19-1.28.02-.1.1-.15.17-.21.53-.46,1.09-.87,1.63-1.31-.43.26-.83.55-1.22.86-.13.12-.27.23-.41.33-.25.19-.48.39-.69.62-.23.22-.45.45-.66.69.32-.29.69-.62,1.08-.97,0,.2-.02.4-.05.59,0,.48-.25.93-.66,1.18-.4.3-.78.62-1.14.96l.04.04c.51-.42,1.02-.85,1.54-1.27-.05.44-.03.87-.43,1.18-.61.5-1.17,1.04-1.7,1.62-.04.04-.1.07-.11.17.68-.62,1.31-1.27,2.03-1.86.03.22-.08.38-.08.59.02-.03.03-.06.04-.08.07-.48.35-.89.77-1.13.29-.19.54-.43.76-.7l-1.26.98c-.04-.42.11-.83.42-1.11.37-.29.73-.57,1.15-.9-.12.54-.21,1.1-.26,1.65-.04.38-.07.76-.1,1.15,0,.19-.1.37-.25.49-1.14.97-2.24,1.98-3.28,3.06,1.16-1,2.25-2.07,3.42-3.06.07.02.06.06.06.1-.04.43-.06.87-.06,1.31,0,.09-.05.18-.13.23-1.12.85-2.16,1.8-3.2,2.75-.1.09-.21.16-.32.22-.31.16-.55.43-.67.75-.03.12-.04.23-.06.35-.2.76-.33,1.53-.4,2.31-.08.7-.3,1.37-.64,1.98-.11.25-.37.39-.64.34-.42-.05-.81-.26-1.1-.58-1.04-1.02-1.53-2.47-1.32-3.91.1-.85.37-1.66.49-2.51.19-.99.44-1.96.74-2.92.3-1.14.44-2.32.43-3.51-.04-1.06-.5-2.05-1.29-2.75-.45-.41-1.13-.4-1.57,0-.09.14-.15.3-.18.46-.24.95-.35,1.94-.32,2.92-.03,1.16.07,2.32.05,3.48-.04,1.32-.54,2.58-1.43,3.55-.21.32-.63.4-.95.2-.02-.02-.05-.03-.07-.05-.26-.13-.44-.36-.51-.64-.19-1.05-.24-2.12-.13-3.19.07-.84,0-1.68-.19-2.49-.14-.5-.42-.95-.82-1.28-.13-.1-.19-.28-.15-.44.02-.15.04-.3.04-.46,0-.04.02-.11-.04-.12-.03,0-.07.05-.13.1.02-.25.04-.47.06-.74.28.17.55,0,.83,0,.27,0,.6-.39.64-.74.07-.61.07-1.24,0-1.85-.04-.4-.15-.8-.32-1.16-.1-.4-.51-.64-.91-.54-.08.02-.15.05-.22.1-.1.04-.13.04-.15-.06-.08-.4-.12-.8-.16-1.21.15,0,.13.17.25.19.11.02.21.02.32.02.15,0,.28-.11.29-.26,0,0,0-.02,0-.03.02-.4.04-.8.06-1.19-.02-.18.01-.35.09-.51.04-.06.02-.15,0-.23-.11-.48-.28-.94-.5-1.38-.2-.39-.39-.45-.79-.28-.16.07-.32.15-.48.23-.1.06-.15.07-.18-.07-.21-.95-.31-1.93-.3-2.9,0-.67-.02-1.34.04-2,0-.08.03-.19-.11-.17-.1,0-.07-.06-.06-.11.02-.78.11-1.56.27-2.33.02-.09.02-.19.17-.19.78-.06,1.56-.03,2.34.09.02,0,.05,0,.07,0,.26.2.38-.01.52-.17.16-.2.33-.38.52-.55.06-.06.1-.14.11-.22.07-.27.16-.54.24-.82.03.16.06.32.09.48.05.22.14.28.35.2.37-.16.56-.13.77.4.16.41.4.78.56,1.18.15.32.46.53.82.55,1.31.33,2.67.38,3.99.15.7-.12,1.32-.52,1.71-1.12.24-.34.62-.55,1.03-.58.17-.02.27,0,.3.2.12.59.25,1.18.38,1.78.04.14-.02.28-.13.36-.4.34-.78.69-1.17,1.04-.06.05-.12.11-.18.16l.04.04c.43-.38.86-.75,1.3-1.13.05-.04.1-.13.17-.11.08.03.06.13.08.2.09.26.12.54.1.81-.07.25-.4.36-.61.54-.55.46-1.07.95-1.56,1.47-.07.07-.12.15-.14.24.06-.06.13-.11.19-.17.63-.63,1.29-1.23,1.98-1.79.14-.11.2-.14.23.08.06.46.13.93.21,1.39.04.14-.02.28-.14.35-.18.12-.35.25-.52.38-.12.1-.18.09-.2-.08-.04-.36-.1-.71-.19-1.06.03.29.06.59.11.88.04.25.1.5-.19.67.04-.02.07-.05.11-.07.12-.09.16-.03.16.09v.02c.07.3.09.61.06.91-.08.29-.44.4-.66.61-.2.17-.38.36-.54.56.35-.28.69-.57,1.04-.85.05-.04.11-.14.19-.09.06.03.04.13.04.19.02.31.03.63.07.94.05.21-.03.42-.2.55-.1.08-.18.19-.23.31l.43-.4c.08.43.06.83.11,1.22,0-.37,0-.73,0-1.1-.02-.15.04-.29.16-.38.23-.2.45-.41.7-.64.07.27.1.54.11.82.04.26.04.52.06.78-.01.2,0,.4.03.6.05.26.07.53.06.8.02.14-.04.28-.15.36-.41.34-.78.71-1.12,1.11.33-.3.66-.61.99-.9.08-.07.15-.21.25-.17.1.04.05.19.06.29.02.24.03.49.04.73,0,.12-.06.24-.17.31-.47.42-.91.87-1.32,1.35.85-.77,1.65-1.59,2.53-2.34-.35.23-.67.49-.98.77-.09-.06-.05-.14-.05-.21.01-.17,0-.34,0-.51-.1-.36.08-.74.42-.89.03-.02.05-.04.07-.06,0-.01.02-.03.02-.04-.14.06-.27.14-.38.24-.04.03-.08.1-.13.05-.03-.02-.03-.08-.03-.13.02-.38.01-.76-.02-1.14-.04-.51-.05-1.04-.14-1.54-.07-.25.04-.51.27-.64.26-.17.5-.38.75-.58-.11-.03-.18.05-.25.1-.23.17-.45.35-.67.52-.07.05-.13.11-.15-.04-.04-.36-.07-.72-.11-1.08,0-.09.04-.17.12-.2.2-.13.41-.26.6-.41-.21.07-.41.17-.58.29-.14.09-.17.06-.19-.1-.05-.27-.08-.55-.09-.82-.02-.23-.05-.45-.11-.67-.03-.39-.09-.78-.17-1.16-.04-.15.02-.31.16-.38.14-.08.25-.18.34-.31-.16.06-.3.15-.43.26-.09.06-.13.05-.15-.06-.05-.27-.09-.54-.14-.82-.02-.09.02-.19.1-.24.17-.14.35-.28.51-.43.12-.11.18-.1.22.06h0ZM30.38,48.49c-.05.23-.23.24-.34.34.05-.15.18-.23.34-.34ZM30.24,48.2c.01-.17.12-.32.28-.37,0,.21-.14.26-.28.37h0ZM30.32,48.84c0,.36-.36.4-.46.64-.03-.3.08-.45.46-.64h0ZM41.25,56.15c-.2.13-.39.28-.57.42-.1.08-.15.05-.16-.07-.03-.29-.07-.58-.1-.87-.01-.08.02-.16.08-.2.21-.15.42-.31.63-.46.09-.07.15-.06.16.07.03.27.07.53.11.85.03.09-.03.18-.14.26h0ZM41.44,56.33c.03.34.07.68.11,1.03.01.08-.02.15-.08.2-.22.2-.44.4-.66.6-.03.03-.06.08-.11.06-.05-.02-.04-.08-.04-.12-.03-.39-.05-.78-.08-1.11-.03-.15,0-.23.09-.29.21-.15.41-.3.61-.45.13-.1.16-.05.17.09h0ZM41.59,50.82c.04.08.02.17-.06.22-.19.15-.38.31-.57.46-.07.06-.13.09-.15-.04-.12-.63-.26-1.26-.44-1.87-.03-.11.02-.15.13-.16.17,0,.34-.02.5-.03.13-.03.18.02.22.14.12.43.25.85.38,1.27ZM42.52,41.18c.34,1.61.8,3.2,1.35,4.76.15.42.32.83.5,1.24.07.13.04.28-.07.37-.28.24-.6.43-.95.55-.07.04-.16.02-.2-.05,0,0,0,0,0,0-.1-.25-.2-.1-.3,0-.03.04-.06.09-.09.13-.09.2-.31.3-.52.25-.31-.03-.61-.03-.92.01-.1,0-.2.02-.26-.08-.03-.05-.09-.07-.14-.04,0,0,0,0,0,0-.05.03-.06.08-.07.13-.03.34-.03.34-.37.37-.27.02-.54.04-.8.05-.19,0-.36.09-.47.24-.4.55-.9,1.01-1.33,1.52-.17.14-.37.22-.59.23-1.39.24-2.81.18-4.17-.16-.13-.03-.23-.11-.3-.22-.29-.5-.55-1.01-.78-1.54-.1-.29-.42-.45-.71-.34-.01,0-.02,0-.04.01-.21.07-.26,0-.28-.2-.06-.59,0-1.18,0-1.76,0-.11,0-.23,0-.34-.02-.12.08-.3-.11-.33-.21-.03-.09.18-.15.27-.29.46-.41,1-.68,1.48-.07.16-.12.33-.16.5-.14.47-.26.94-.39,1.42-.02.07-.03.11-.12.08-.71-.18-1.45-.22-2.17-.12-.08,0-.15,0-.23,0-.1,0-.17,0-.11-.14.05-.11-.02-.12-.1-.11-.5.06-.99-.12-1.33-.49-.49-.43-.91-.94-1.24-1.51-.11-.18-.13-.4-.03-.59.99-2.28,1.84-4.62,2.56-7,.22-.73.42-1.48.62-2.22.04-.15.1-.23.26-.2.1.02.2,0,.3.01.11.02.28-.06.32.09.06.17.01.36-.12.49-.29.23-.55.49-.78.78l.87-.73c-.12.89-.31,1.69-.5,2.5.19-.51.34-1.04.44-1.57.02-.13.09-.24.2-.32.42-.32.83-.65,1.24-.99.12-.12.29-.18.46-.14.2,0,.4.03.59.07-.62.43-1.21.89-1.77,1.39.23-.17.47-.34.7-.51.36-.26.72-.52,1.08-.79.1-.08.22-.11.34-.1.3.03.59.06.94.09l-.81.59.03.05c.21-.15.44-.28.64-.44.16-.14.37-.19.58-.15.24.04.48.06.79.1-.48.34-.91.64-1.34.94l.03.04c.39-.27.78-.53,1.15-.81.15-.12.34-.17.53-.14.33.06.66.1,1.04.15-.45.38-.88.78-1.28,1.2.37-.31.75-.62,1.11-.94.16-.19.42-.26.66-.19.25.07.51.1.77.14.04,0,.1,0,.12.05.03.07-.04.09-.08.12-.22.2-.44.4-.66.6l.04.04c.21-.18.43-.34.62-.54.14-.18.38-.24.59-.15.23.07.47.11.76.17-.57.52-1.11,1-1.65,1.49l.04.05c.1-.08.2-.16.29-.24.43-.38.86-.75,1.27-1.13.09-.1.24-.14.37-.09.22.07.45.13.71.2-.51.43-1,.84-1.48,1.25l.03.05c.11-.08.22-.16.33-.25.37-.3.73-.61,1.1-.91.21-.13.49-.07.62.14,0,0,0,0,0,0,.07.15.12.32.18.47.06.14-.04.19-.12.26-.67.58-1.34,1.15-2,1.73-.06.05-.11.12-.15.2.27-.22.54-.44.81-.66.46-.39.93-.78,1.39-1.18.12-.11.18-.11.23.06.12.37.12.37-.17.62-.51.43-1.01.86-1.51,1.29l.04.05c.22-.18.44-.37.67-.54.09-.07.15-.21.31-.16-.03-.1.04-.14.1-.19.19-.16.38-.31.56-.48.1-.09.16-.11.2.05.07.27.14.53.21.8.03.09,0,.19-.09.24-.18.15-.35.3-.52.45-.12.11-.2.14-.23-.06,0-.04-.02-.07-.04-.11.1.29-.04.46-.25.63-.28.22-.53.47-.79.71l.04.05c.31-.26.61-.51.91-.77.09-.08.17-.13.27-.03-.05-.07-.04-.18.04-.23,0,0,0,0,.01,0,.19-.16.38-.33.57-.49.09-.08.16-.1.18.05,0,.06.03.12.04.18q.19.83-.5,1.33c-.1.07-.13.07-.16-.06-.05-.22-.12-.44-.17-.66,0,.21.05.43.12.63.05.15,0,.31-.13.39-.34.27-.66.57-.96.89.31-.25.63-.5.94-.75.09-.07.16-.18.3-.12-.03-.06,0-.13.04-.16.2-.17.4-.34.59-.51.09-.08.13-.05.15.06.05.32.11.63.17.95.02.08-.02.17-.1.21-.14.11-.27.22-.41.33q-.22.17-.3-.09c.05.21-.05.43-.24.54-.3.23-.58.5-.87.76-.07.04-.12.11-.12.19.38-.31.73-.6,1.09-.88q.2-.16.25.09c.03.14.06.28.1.42,0-.16-.02-.31-.06-.46-.01-.09-.08-.2,0-.26.2-.19.42-.36.64-.52.09-.07.09.03.1.09.05.28.1.56.17.83-.03-.29-.06-.58-.11-.86-.03-.11.01-.23.11-.3.22-.16.44-.34.65-.51.09-.08.14-.06.17.06.06.27.12.54.18.81.02.08,0,.16-.07.2-.56.47-1.11.94-1.66,1.41-.05.05-.09.11-.11.19.13,0,.18-.11.25-.16.49-.4.97-.8,1.45-1.2.14-.12.17-.14.26.07.21.42.04.92-.38,1.13,0,0,0,0-.01,0-.61.43-1.18.91-1.71,1.43-.08.05-.13.13-.16.21,1.09-.87,2.19-1.73,3.26-2.67.08.28.16.55.23.83.04.13-.07.18-.14.23-.67.48-1.31,1.01-1.94,1.56-.07.07-.14.14-.22.2l.04.05c.84-.67,1.69-1.33,2.53-2-.21.07-.23-.06-.27-.21-.11-.45-.21-.91-.35-1.36-.07-.22-.06-.36.16-.47.04-.02.09-.04.08-.1-.02-.04-.05-.03-.08-.02-.29.14-.3.14-.38-.17-.07-.29-.26-.56-.2-.88-.27-.28-.26-.68-.41-1.01-.05-.18.05-.37.23-.42.12-.02.1.09.13.15.4.96.73,1.94,1.04,2.93.03.11.08.2.14.29-.09-.29-.17-.58-.26-.87-.26-.82-.55-1.63-.88-2.42-.06-.16.1-.47.28-.48.16,0,.21.15.24.29ZM29.63,37.48c-.47.38-.91.75-1.36,1.11-.11-.54.24-1.06.77-1.17.2-.04.4-.02.58.06ZM28.73,37.43l-.34.29c-.08-.33-.07-.35.34-.29ZM41.64,44.41c-.07.04-.12.08-.15-.04-.06-.3-.13-.6-.19-.9-.01-.06.01-.12.07-.16.09-.07.18-.15.26-.22q.26-.22.37.11s.03.09.04.13q.22.69-.4,1.07ZM42.18,44.17c.08-.06.11-.01.13.06.06.2.12.4.18.6.02.07,0,.14-.06.18-.19.15-.38.31-.57.47-.06.05-.12.09-.15-.03-.05-.24-.09-.48-.14-.74,0-.04,0-.08.04-.1.19-.14.38-.29.57-.43ZM41.72,42.92q-.45.38-.59-.19c-.02-.08-.04-.16-.06-.24q-.13-.5.29-.8c.06-.04.12-.09.16.01.12.34.23.68.33.98.03.15-.06.19-.12.24ZM40.79,41.88c.03.06.01.14-.04.19-.23.2-.46.39-.73.62-.08-.36-.15-.67-.22-.98-.02-.07,0-.15.06-.2.17-.15.35-.3.52-.45.09-.08.14-.08.17.04.07.26.16.53.24.79ZM40.63,41.01c-.04-.12.25-.5.38-.5.02,0,.04.01.05.03.12.3.23.6.35.88-.03.15-.15.19-.23.27-.26.23-.26.22-.37-.11-.06-.19-.12-.38-.18-.57ZM40.14,42.73c.21-.17.41-.35.61-.52.05-.04.11-.09.13.01.09.35.18.7.27,1.05,0,.06-.03.12-.09.16-.23.17-.45.34-.67.52-.09.07-.14.07-.16-.06-.05-.32-.11-.64-.17-.95-.02-.08,0-.16.07-.2h0ZM41.42,41.21c-.09-.22-.18-.44-.26-.66-.02-.16.07-.31.22-.36.02,0,.05,0,.06.02.13.29.26.59.39.87-.04.13-.14.24-.27.28-.11.05-.11-.09-.13-.16h0ZM41.29,40.09c-.06.06-.12.12-.19.16-.06.03-.07-.03-.09-.07-.05-.12-.11-.24-.16-.35l.04-.04c.12.07.24.13.35.2.03.02.1.05.05.1ZM40.91,40.15c.03.23-.09.44-.29.55-.1.01-.1-.04-.12-.08-.1-.25-.2-.5-.3-.74-.04-.07-.02-.16.05-.2.07-.06.13-.13.24-.08.13.06.26.12.31.28.03.09.07.18.11.28h0ZM40.41,40.67c.05.08.02.19-.06.24-.17.14-.33.29-.5.44-.04.03-.1.12-.13,0-.09-.31-.17-.62-.27-.96,0-.04.04-.08.09-.12.14-.12.28-.23.42-.36.09-.08.15-.09.19.04.08.24.17.48.26.71h0ZM39.86,39.87c-.11.09-.22.19-.33.28-.03.02-.06.05-.08.06-.07-.02-.07-.07-.08-.11-.16-.38-.06-.61.33-.8.06-.03.14-.02.19.03.14.12.17.33.05.47-.02.02-.04.04-.06.06h0ZM39.59,39.24c-.39.41-.44.39-.66-.27l.67.24s0,.03-.01.04h0ZM42.13,40.92c-.23.18-.23.18-.35-.08-.09-.21-.18-.41-.28-.62.24.12.46.27.65.46.12.1.09.16-.02.24h0ZM48.83,34.59c-.33.08-.67.17-1.01.23.69-.69,1.49-1.26,2.19-1.93-.28.16-.55.34-.79.55-.55.45-1.1.89-1.61,1.38-.22.22-.55.16-.83.24.44-.52.97-.95,1.46-1.42l-.04-.05c-.15.12-.31.23-.46.36-.37.31-.72.65-1.05,1-.12.13-.28.22-.45.24-.28.04-.56.13-.91.15.52-.52,1.08-.91,1.56-1.4-.06.03-.11.06-.16.09-.51.34-.99.73-1.43,1.16-.15.16-.36.26-.58.28-.18.02-.36.06-.6.1.54-.51,1.11-.98,1.71-1.42l-.04-.05c-.15.09-.3.18-.44.27-.42.29-.81.61-1.17.97-.18.2-.44.32-.71.33-.14,0-.29.04-.5.07.35-.36.73-.58,1.06-.87-.11.01-.21.06-.29.13-.3.19-.59.42-.84.68-.19.2-.44.09-.65.17l-.02-.05c.19-.16.38-.32.57-.48l-.03-.05c-.13.07-.26.15-.38.24-.34.28-.76.44-1.21.45-2.82.3-5.65.39-8.49.27-5.39-.16-10.72-1.18-15.78-3.02-.42-.16-.85-.31-1.28-.46-.05-.02-.13-.02-.11-.11.07-.38.04-.78.15-1.16.04-.15.08-.18.25-.12.48.17.98.3,1.47.45,3.55,1.06,7.19,1.76,10.88,2.1,3.06.28,6.13.34,9.2.19,3.81-.17,7.6-.65,11.34-1.43.9-.19,1.8-.41,2.68-.65.08-.02.17-.1.24.01-.11.04-.21.11-.29.2-.87.72-1.7,1.48-2.5,2.28-.03.04-.08.07-.13.09h0ZM51.91,33.68c-.91.3-1.83.58-2.75.82-.04,0-.08,0-.12,0,.1-.09.17-.16.24-.22.74-.67,1.48-1.33,2.23-2,.09-.08.17-.17.25-.26.32-.18.67-.31,1.03-.38.47-.16.94-.3,1.42-.46.01.09-.05.12-.09.15-.73.66-1.39,1.39-1.99,2.17-.05.08-.12.14-.21.17h0ZM57.95,31.07c-.29.02-.43.28-.73.37.33-.41.71-.79,1.13-1.12-.11,0-.21.06-.29.14-.29.21-.55.47-.77.76-.31.36-.71.63-1.16.78l-.04-.04c.52-.59,1.03-1.17,1.56-1.77-.08-.04-.11.02-.14.05-.58.56-1.12,1.16-1.62,1.79-.05.07-.11.13-.19.17-.65.3-1.31.57-1.97.83-.03,0-.06,0-.1,0,.72-.78,1.43-1.54,2.15-2.29-.27.17-.51.38-.72.61-.48.5-.97,1.01-1.43,1.53-.18.21-.42.36-.68.44-.22.07-.44.16-.68.24,0-.13.08-.17.13-.23.56-.69,1.19-1.32,1.79-1.98.15-.17.34-.29.56-.36,1.29-.46,2.53-1.04,3.7-1.75.02-.02.05-.03.11-.05,0,.28-.03.57-.1.85-.05.17-.09.34-.1.51,0,.29-.13.51-.4.53h0ZM58.94,30.54c-.19.1-.37.21-.57.32,0-.16,0-.16.15-.24.05-.03.04-.1.05-.15.02-.3.06-.59.13-.88.01-.09.05-.16.11-.23.03.35.11.7.22,1.04.03.07-.03.11-.09.14h0ZM59.28,29.95s-.03.07-.11.08c-.02-.54.04-1.07.17-1.6h.07c-.04.52-.08,1.02-.13,1.52h0ZM59.65,28.78c-.02.2-.03.39-.03.59.01.16-.07.31-.21.38,0-.58.09-1.16.26-1.71.04.24.04.49-.01.74h0ZM64.09,27.04c-.28.13-.57.24-.86.33-.03-.28.08-.52.07-.81-.1.17-.16.37-.15.57.02.19-.11.35-.3.37-.01,0-.02,0-.03,0-.09.02-.17.05-.26.08l.14-1.17c-.11.31-.16.64-.17.97,0,.05,0,.11,0,.16-.02.09-.09.1-.16.1-.09,0-.05-.08-.05-.12.03-.4.07-.81.09-1.22-.09.26-.14.53-.14.81-.01.15-.02.31,0,.46,0,.16-.13.17-.22.18-.14,0-.07-.11-.06-.17.03-.35.06-.7.1-1.05-.11.31-.18.64-.19.97,0,.08-.01.15-.02.23,0,.08-.08.15-.17.14,0,0,0,0-.01,0-.11-.01-.05-.11-.04-.17.06-.4.13-.8.18-1.2-.14.19-.12.43-.21.64-.09-.08-.04-.17-.06-.25-.05-.02-.04.06-.07.05-.26-.04-.21.15-.23.29-.02.25-.06.5-.13.74-.02.06-.03.12-.13.13.04-.35.07-.7.11-1.09-.24.46-.03.99-.37,1.37.01-.33,0-.67-.04-1-.01.15-.03.3-.04.45-.01.16-.03.32-.03.48.02.17-.07.34-.23.41l.13-1.15c-.19.46-.11.97-.34,1.42,0-.42.01-.83.06-1.25-.12.36-.18.74-.18,1.12,0,.23-.13.44-.32.57,0-.31.03-.61.07-.92.02-.11.03-.21.03-.32-.04-.3.13-.58.4-.69.66-.4,1.27-.86,1.84-1.38.05-.05.11-.09.18-.09.48-.03.96-.12,1.42-.25.17-.04.16,0,.13.14-.13.38-.19.78-.19,1.18.08-.13.12-.28.12-.43.06-.25.1-.51.15-.77.1-.19.29-.32.5-.34.07.01.05.06.04.11-.12.4-.19.81-.21,1.22,0,.06-.04.12-.1.14h0ZM65.98,26.76c-.02.06-.08.11-.14.12-.4.09-.81.08-1.21,0-.13,0-.26.02-.38.06.07-.41.14-.8.2-1.19.05-.31.11-.37.45-.42-.03.17-.06.33-.09.49-.01.07-.05.17.07.19.1.02.11-.08.13-.16.03-.06.04-.13.04-.2-.06-.41.24-.59.5-.79.05-.05.13-.06.19-.04.06.02.12.03.18.04.67.17.54.1.45.73-.08.41-.22.8-.4,1.17h0ZM66.89,26.15c-.01-.23,0-.47.05-.7-.09.17-.14.36-.14.55-.01.3-.22.42-.46.58.15-.34.26-.7.3-1.06,0-.35.24-.47.52-.65-.02.44-.11.87-.27,1.28h0ZM67.21,25.89c-.05-.43.03-.87.21-1.27-.03.43-.11.85-.21,1.27h0ZM68.56,23.64c-.06.34,0,.73-.31,1.01.04-.3.09-.6.13-.91-.11.23-.19.47-.22.72-.05.24,0,.51-.28.7.08-.38.13-.77.17-1.16-.15.47-.27.94-.36,1.42h-.06c.04-.35.09-.69.13-1.02h-.06c-.14.4-.14.84-.27,1.26-.03-.25.08-.49.06-.73-.01-.31.1-.62.32-.84.34-.42.62-.88.84-1.37.02-.05.03-.11.12-.14-.06.36-.13.72-.23,1.07h0Z"/>
      <path class="cls-1" d="M12.76,28.71c.05-.33.1-.66.15-.99-.13.31-.18.65-.15.99Z"/>
      <path class="cls-1" d="M14.41,30.09l-.02.41c.08-.12.09-.28.02-.41Z"/>
      <path class="cls-1" d="M43.45,23.72c-.06.2-.09.4-.1.61-.01.19.03.38.13.54.09-.75.3-1.48.64-2.16.27-.62.71-1.15,1.28-1.52.14-.09.26-.19.4-.28.53-.39,1.13-.67,1.76-.83.1-.02.2-.06.28.03.11.1.25.18.39.23.05.03.12.04.14.11.11.3.19.62.23.94-.23-.15-.46-.28-.71-.38.14.13.29.24.46.34.31.15.36.4.34.72-.21-.16-.43-.29-.66-.4.17.16.35.3.54.42.17.09.24.29.17.47-.02.12-.06.13-.16.08-.27-.15-.55-.3-.83-.45-.15-.08-.3-.14-.45-.21l-.03.06c.42.23.84.47,1.27.69.13.05.21.19.19.32,0,.18-.06.37.14.52.08.09.11.22.08.34-.11.25-.17.51-.29.75-.23.38-.43.78-.61,1.18-.04.11-.1.11-.19.05-.22-.15-.45-.3-.68-.43-.22-.13-.44-.24-.69-.37,0,.06.05.11.11.13.39.25.78.5,1.17.73.14.09.14.16.05.29-.16.26-.4.45-.68.55-.24.08-.48.14-.73.21-.11.03-.23,0-.33-.05-.92-.48-1.75-1.12-2.46-1.88-.08-.1-.17-.17-.28-.23-.05-.04-.13-.02-.17.03-.03.04-.03.1,0,.15.03.04.06.09.1.13.62.8,1.41,1.45,2.31,1.9.04.02.14.03.09.11-.14.22.05.22.16.22.33,0,.66-.05.98-.16.61-.17,1.21-.4,1.78-.69.08-.04.2-.08.21-.16.03-.22.2-.24.36-.3.15-.06.31-.11.47-.17-.21.04-.42.1-.62.17-.13.05-.18,0-.13-.13.06-.17.11-.35.18-.52.16-.38.35-.75.59-1.1.13.17,0,.35.11.51.14-.36.22-.73.25-1.11,0-.91-.14-1.81-.4-2.68-.08-.32-.33-.58-.66-.67-.29-.08-.56-.21-.81-.37-.2-.16-.47-.21-.71-.14-.79.23-1.53.62-2.17,1.13-.9.68-1.53,1.64-1.79,2.74Z"/>
      <path class="cls-1" d="M27.01,26.37s.04.11.06.17c.11.42.25.84.43,1.24.16.34.34.66.8.71-.06.04-.08.06-.11.07-.07.04-.13.09-.1.18.03.08.11.07.18.07.11,0,.23-.02.34-.03.69-.12,1.37-.27,2.04-.47.31-.05.59-.21.8-.43.24-.28.58-.44.95-.44.08-.01.16-.03.24-.05-.23,0-.47.02-.7.07-.05,0-.15.08-.17-.04-.02-.08.04-.16.12-.18,0,0,.01,0,.02,0,.14-.02.27-.05.4-.08v-.03c-.1.01-.2.02-.3.04-.15.04-.21,0-.19-.17.03-.25.05-.5.07-.75.02-.17.04-.35.04-.52.02-.34-.2-.64-.53-.72-.05-.01-.1-.07-.15-.11-.17-.15-.34-.31-.51-.46-.1-.11-.26-.15-.4-.11-1.22.26-2.36.83-3.3,1.65-.13.12-.25.23-.04.38ZM27.34,26.08c.5-.42,1.06-.76,1.67-1.01.07-.04.15-.05.22-.04.23.03.46.05.69.04.1,0,.2.03.29.06.08.03.2.07.19.17,0,.1-.14.07-.21.08-.24.03-.48.09-.71.19.26-.04.52-.09.78-.13.22-.02.41.14.43.35,0,0,0,.01,0,.02,0,.1-.07.08-.13.09-.23.04-.47.07-.7.11-.09.01-.17.05-.25.1.32-.05.65-.09.97-.14.14-.02.19.02.22.16.07.31.07.63.16.94.05.18-.12.32-.24.45-.48.47-1.09.78-1.76.88-.65.14-.82-.1-1.09-.54-.26-.51-.47-1.05-.62-1.61-.03-.09.02-.12.08-.17h0Z"/>
      <path class="cls-1" d="M35.19,8.32h-.01s.02,0,.02,0h0Z"/>
      <path class="cls-1" d="M31.53,9.18c.18.18.34.37.5.57.14.21.39.33.64.3.41.01.83-.06,1.22-.2.34-.08.62-.33.74-.65.04-.13.16-.21.29-.23.28-.06.55-.15.83-.23v-.05s-.96.23-.96.23c.09-.26.16-.49.4-.6-.1.01-.17.01-.11-.14.07-.19.13-.38.17-.57.02-.12.12-.22.24-.22.32-.04.63-.12.93-.21-.3,0-.59.04-.88.11-.21.05-.23-.02-.2-.21.1-.29.06-.61-.12-.86-.09-.14-.24-.24-.4-.27-.75-.08-1.5-.07-2.25,0-.1,0-.22.08-.15.17.14.17,0,.22-.09.29-.42.38-.82.79-1.19,1.22-.08.1-.16.21-.23.32-.06.07-.07.16-.02.24.24.31.39.68.65.97ZM31.34,7.85c.43-.48.91-.91,1.34-1.39.18-.18.43-.27.69-.24.4-.02.8-.01,1.2,0,.17.01.23.09.18.25-.09.28-.19.55-.28.83-.08.23-.2,0-.31.04.14.07.19.24.11.38-.01.02-.02.04-.04.06-.1.16-.22-.12-.4-.06.12.09.21.16.31.24.09.07.19.13.09.26-.09.11-.19.15-.31.04-.04-.03-.08-.06-.12-.09,0,.09.06.12.1.15.06.06.15.11.05.22-.09.11-.16.06-.25,0-.13-.12-.29-.2-.46-.24.14.11.28.21.43.32.09.06.09.1,0,.17-.15.11-.28.18-.45,0-.14-.15-.32-.26-.52-.31.18.14.35.28.53.42.06.05.11.1,0,.15-.28.15-.52.37-.82.5-.07.03-.13.06-.2-.02-.34-.4-.64-.82-.91-1.27-.09-.12-.07-.29.05-.39h0Z"/>
      <path class="cls-1" d="M17.1,24.18c.06.01.12,0,.17-.04.27-.24.48-.54.62-.87.03-.06.06-.17,0-.19-.23-.08-.13-.28-.17-.42-.04-.13-.04-.22.08-.25-.15,0-.21-.12-.28-.25-.24-.6-.92-.89-1.52-.65-.01,0-.03.01-.04.02-.81.33-1.52.85-2.08,1.52-.08.08-.09.2-.01.29.14.19.31.36.49.51.26.23.66.23.89.52.02.01.04.02.07.01.29-.09.59.01.88-.1.29-.09.6-.12.91-.1ZM15.42,24.03s-.09.06-.15.02c-.39-.19-.76-.43-1.09-.72-.08-.09-.09-.14,0-.22.57-.58,1.23-1.05,1.96-1.4.19-.08.36.02.54,0,.07,0,.07.07.08.12.07.32.15.64.22.96.03.11-.02.15-.12.18-.19.04-.36.12-.51.24.18-.06.36-.11.54-.17.07-.02.14-.03.13.09-.04.41-.26.78-.75.74-.29-.03-.59.03-.85.16h0Z"/>
      <path class="cls-1" d="M17.9,22.4s-.07,0-.1,0c.03,0,.07,0,.1,0Z"/>
      <path class="cls-1" d="M55.38,24.54c.07.48.48.85.97.86.37.03.75.01,1.12-.05.3.02.58-.15.71-.42.11-.18.29-.3.5-.33.11-.03.22-.07.33-.11v-.03s-.55.16-.55.16c-.01-.24.11-.46.32-.57-.05.01-.09.03-.13.04-.09.03-.12,0-.14-.09-.08-.25-.12-.52-.11-.79.06-.32-.11-.47-.36-.58-.12-.05-.24-.09-.37-.11-.33-.08-.68.11-1.01-.04-.02-.01-.07.02-.1.04-.47.29-.91.63-1.31,1-.06.06-.13.14-.08.22.12.25.2.51.22.79ZM55.54,23.6c.33-.28.68-.55,1.04-.79.26-.16.6-.11.8.12.09.1.18.21.27.32.1.1.14.24.12.37-.09-.03-.17-.06-.24-.09-.08-.03-.16-.05-.3-.1.09.1.21.18.35.22.28.12.28.11.24.43-.13-.01-.21-.15-.35-.15,0,.05.03.07.06.08.35.12.34.41.32.7,0,.05,0,.11-.06.14-.05.05-.09.12-.11.19,0,.07-.03.12-.11.12-.52.03-1.04-.02-1.55-.15-.15-.05-.26-.17-.29-.32-.06-.31-.15-.62-.26-.93-.04-.08.02-.11.07-.15Z"/>
      <path class="cls-1" d="M58.78,24.05c.06-.02.11-.03.17-.05-.06,0-.11.03-.17.05Z"/>
      <path class="cls-1" d="M20.33,19.76s.07.06.11.09c.27.21.54.43.82.63.28.2.37.2.66,0,.06-.05.13-.08.21-.09.22-.03.33-.23.51-.33.05-.03.06-.09.03-.14,0,0,0,0,0,0-.03-.09-.04-.19-.03-.29,0-.31,0-.62-.01-.93,0-.29-.08-.36-.38-.36-.17,0-.34,0-.53,0-.23.06-.52-.05-.74.09-.3.18-.55.42-.74.71-.07.12-.25.2-.23.34.02.17.24.16.34.28ZM20.34,19.31c.21-.27.46-.5.75-.67.26-.1.56,0,.71.24.09.15-.1.12-.13.23.16-.06.24-.03.23.14,0,.21,0,.43,0,.64,0,.11-.03.21-.1.3-.1.13-.22.2-.39.08-.35-.27-.7-.53-1.05-.79-.07-.05-.08-.1-.03-.17Z"/>
      <path class="cls-1" d="M38.46,19.4c.7-.03,1.41-.12,2.1-.27,2.29-.6,4.46-1.58,6.43-2.91.04-.04.07-.07.09-.11-.05,0-.1.02-.15.04-.93.5-1.9.94-2.86,1.38-1.41.68-2.9,1.18-4.44,1.48-.39.07-.79.12-1.18.19-.08.01-.2.02-.19.13,0,.13.13.08.2.07Z"/>
      <path class="cls-1" d="M61.53,23.02c2.05-.6,4.06-1.32,6.02-2.18-1.99.78-4.04,1.39-6.02,2.18Z"/>
      <path class="cls-1" d="M60.84,24.39c2.14-.66,4.31-1.23,6.38-2.07-2.11.73-4.29,1.29-6.38,2.07Z"/>
      <path class="cls-1" d="M42.24,29.45c-2.18.42-4.32,1.04-6.48,1.59,2.18-.44,4.32-1.06,6.48-1.59Z"/>
      <path class="cls-1" d="M65.68,23.89c-2.01.48-3.95,1.2-5.9,1.86l.02.06c1.96-.64,3.92-1.28,5.88-1.92Z"/>
      <path class="cls-1" d="M40.81,23.03l-.02-.06c-2.1.57-4.19,1.13-6.26,1.82l6.27-1.76Z"/>
      <path class="cls-1" d="M53.62,29.13c1.5-.32,2.99-.62,4.46-1.06-1.49.33-2.99.62-4.46,1.06Z"/>
      <path class="cls-1" d="M41,28.42c-.3.03-4.62,1.47-4.85,1.62,1.62-.54,3.23-1.08,4.85-1.62Z"/>
      <path class="cls-1" d="M64.29,19.57h0s0,0,0,0c0,0,0,0-.01,0h0s0,0,0,0Z"/>
      <path class="cls-1" d="M64.08,19.71c-.55.17-1.1.35-1.64.52-.07.02-.16.03-.21.11,1.01-.24,1.99-.56,2.95-.96-.14.04-.23.08-.33.1-.18.04-.35.17-.55.1-.04.1-.13.11-.21.14Z"/>
      <path class="cls-1" d="M61.96,21.55c1.03-.24,2.04-.57,3.02-.99-1.01.33-2.02.66-3.02.99Z"/>
      <path class="cls-1" d="M22.59,25.98c-.73-.42-1.5-.78-2.29-1.07l2.29,1.07Z"/>
      <path class="cls-1" d="M48.29,24.45c-.36-.4-.8-.73-1.29-.95.43.31.87.62,1.29.95Z"/>
      <path class="cls-1" d="M48.52,23.44c-.4-.27-.84-.48-1.29-.64l1.25.72.04-.08Z"/>
      <path class="cls-1" d="M35.42,8.3c.39-.13.79-.26,1.18-.39.08-.03.15-.06.23-.09l-.02-.04-1.6.55c.07.01.15,0,.21-.03Z"/>
      <polygon class="cls-1" points="35.19 8.32 35.2 8.33 35.2 8.33 35.19 8.32"/>
      <path class="cls-1" d="M26.15,9.37c.33-.32.57-.73.87-1.08-.32.33-.62.69-.87,1.08Z"/>
      <path class="cls-1" d="M26.15,9.37s-.02.02-.02.03h0s.01-.02.02-.03Z"/>
      <path class="cls-1" d="M27.42,7.79c.29-.28.6-.58.92-.88-.33.26-.64.56-.92.88Z"/>
      <path class="cls-1" d="M47.92,25c-.31-.26-.66-.45-1.05-.58.35.19.7.38,1.05.58Z"/>
      <path class="cls-1" d="M26.13,9.39v.02s0-.02,0-.02h0Z"/>
      <path class="cls-1" d="M25.74,10c.15-.18.28-.38.38-.59-.27.31-.5.65-.7,1.01.12-.13.22-.27.32-.42Z"/>
      <path class="cls-1" d="M37.91,6.13c-.08-.12-.24-.22-.12-.4-.21.12-.28.34-.45.49.02,0,.03,0,.04-.02.15-.2.31-.31.52-.07Z"/>
      <path class="cls-1" d="M38.55,6.96c-.13-.21-.27-.4-.44-.58.09.23.24.44.44.58Z"/>
      <path class="cls-1" d="M30.87,59.04c0-2.32-.31-4.63-.92-6.87.5,2.26.81,4.56.92,6.87Z"/>
      <path class="cls-1" d="M40.63,65.33l2.92-2.75c-1.05.83-2.03,1.75-2.92,2.75Z"/>
      <path class="cls-1" d="M27.37,53.34c-.12-1.08-.18-2.16-.19-3.25-.08,1.09-.01,2.18.19,3.25Z"/>
      <path class="cls-1" d="M40.74,66.92l1.12-.96c-.42.26-.79.59-1.12.96Z"/>
      <path class="cls-1" d="M29.12,58.49c.05.33.1.66.15.99h.04s-.16-.99-.16-.99h-.04Z"/>
      <path class="cls-1" d="M26.04,46.26h.04c.11-.43.22-.87.32-1.31h-.05c-.11.43-.21.87-.32,1.31Z"/>
      <path class="cls-1" d="M58.45,14.3l-.03.05c.47.33.95.64,1.46.91-.47-.32-.95-.64-1.42-.95Z"/>
      <path class="cls-1" d="M58.25,14.94c.34.33.73.6,1.16.8l-1.16-.8Z"/>
      <path class="cls-1" d="M7.05,27.99c.08-.75.07-1.51-.02-2.26-.07.75-.06,1.51.02,2.26Z"/>
      <path class="cls-1" d="M8.99,27.59c.07-.73.07-1.47,0-2.21-.08.73-.08,1.47,0,2.21Z"/>
      <path class="cls-1" d="M55.25,31.96c.53-.52,1.04-1.02,1.55-1.51-.56.46-1.08.97-1.55,1.51Z"/>
      <path class="cls-1" d="M59.98,28.14c-.06.32-.09.64-.09.96.06-.32.09-.64.09-.96Z"/>
      <path class="cls-1" d="M62.88,27.24c.03-.25.07-.5.1-.75-.08.24-.12.5-.1.75Z"/>
      <path class="cls-1" d="M50.75,33.91c.8-.7,1.55-1.46,2.25-2.26-.8.7-1.55,1.46-2.25,2.26Z"/>
      <path class="cls-1" d="M65.09,26.29h.06c.08-.37.16-.76.23-1.14l-.09-.02c-.11.38-.18.76-.21,1.16Z"/>
      <path class="cls-1" d="M65.63,25.43c-.12.33-.19.67-.22,1.01.12-.33.19-.67.22-1.01Z"/>
      <path class="cls-1" d="M10.68,29.36c.06-.61.13-1.21.19-1.82-.17.59-.24,1.2-.19,1.82Z"/>
      <path class="cls-1" d="M29.16,27.07c.49-.1.98-.15,1.47-.25-.5,0-1,.08-1.47.25Z"/>
      <path class="cls-1" d="M29.09,27.6c.46-.08.92-.16,1.39-.24-.47,0-.94.08-1.39.24Z"/>
    </g>
  </g>
</svg>