<svg xmlns="http://www.w3.org/2000/svg" viewBox="0 0 100 125" fill="currentColor" stroke="none"><path d="M50.60122,19.87375C50.848,18.34048,52.141,17.5666,53.031,16.546c3.17386-3.63936,7.38505-6.00406,11.44417-8.50622a11.0216,11.0216,0,0,1,4.51745-1.23c2.7443-.29262,4.67452,1.10732,5.70127,3.89046a24.86207,24.86207,0,0,1,1.01584,14.1444c-.38523,1.77586-1.33679,3.38074-1.25169,5.2991-1.08031.31629-1.40041,1.535-2.47849,1.92969A23.42134,23.42134,0,0,1,64.67173,33.256a12.623,12.623,0,0,1-4.417-.45761c2.78621-.36389,5.65949-.15609,8.59491-.55275-2.12268-2.82563-3.76195-5.77786-5.672-8.65-.38518.42495.059,1.01475-.30257,1.34921-.54152-.07524-.15313-.6093-.52939-.8377-.68043,2.31758-1.30117,4.63752-2.04476,6.90958-.82345,2.51605-1.81051,4.96832-2.6343,7.48425a60.37664,60.37664,0,0,1-5.176,11.10025A74.57139,74.57139,0,0,0,48.0878,59.432a36.67361,36.67361,0,0,0-2.2222,10.07733c-.19209,2.07392-.62385,4.1141-.72949,6.19575-.156,3.07289-.58135,6.09148-.91348,9.13-.087.79565.59279,1.258,1.4327,1.01712a4.44889,4.44889,0,0,0,2.41757-2.36841c.83868-1.37524,1.65777-2.76332,2.488-4.14885a1.27073,1.27073,0,0,1-.13583,1.048A29.56811,29.56811,0,0,1,47.85349,84.841,3.22032,3.22032,0,0,1,45.427,86.43152c-1.92112-.02693-1.87035,1.15168-1.91154,2.45584a12.11623,12.11623,0,0,1-.19945,1.39628c1.00655-.22937,1.39016-1.17024,2.10319-1.7227a27.418,27.418,0,0,0,4.19548-4.59581c1.42238-1.74047,1.31119-4.25838,2.573-6.13994,1.01218-1.50928,1.56477-3.37028,2.69014-4.76835a32.03762,32.03762,0,0,1,6.61965-6.65135,2.251,2.251,0,0,0,1.12942-1.611.91446.91446,0,0,1,1.225-.82165c-.24242,1.29341-1.47577,2.142-1.38662,3.58415a4.69358,4.69358,0,0,1-.99386.6,4.2727,4.2727,0,0,0-1.90266,1.3587c-.335.37437-.32992.71029.24083.93374A16.59527,16.59527,0,0,1,62.756,72.12085a.7709.7709,0,0,0,.571.15117c.29258-.13139.07724-.41243.0298-.64256a29.64735,29.64735,0,0,1-.9159-4.0972c.78017.93222.7892,2.09191,1.08566,3.157.547,1.96519,1.39811,2.62726,3.63293,2.51053a32.86478,32.86478,0,0,1-3.6205-7.38324c.368.11042.42961.38986.55481.64885a54.53461,54.53461,0,0,0,2.90681,5.64689c.20771.32669.3495.84665.87934.76358a1.96206,1.96206,0,0,0,.9687-2.88884c-1.3998-1.54443-2.472-3.382-4.37471-4.61728a1.30239,1.30239,0,0,1,1.48166.50811c.72916.89126,1.449,1.7903,2.19377,2.66859.25445.30008.46575.98538.874.72223.46931-.30248-.06633-.8098-.28521-1.1797-1.15692-1.9552-3.0979-2.9498-4.91673-4.091-.60854-.321-1.0689-1.65531-1.90608-.47773a21.88885,21.88885,0,0,1-4.074,4.58083,11.88408,11.88408,0,0,0-2.32824,2.35066,30.537,30.537,0,0,0-4.02657,7.019c-.24678.67532-.3349,1.432-.95353,1.89832.28724-3.041,1.97774-5.38519,3.46879-7.8219.456-.7453,1.32484-1.33773,1.47291-2.13481.15684-.84427-.96384-1.39187-1.54-2.01627a12.34883,12.34883,0,0,1-3.08023-6.26671c-.35769-1.86176-.33056-1.954,1.52152-2.69334a70.5825,70.5825,0,0,1,7.56267-2.80111c2.521-.68687,4.99971-1.44286,7.77844-1.06955,2.81443.3781,5.5918,3.17731,5.51046,5.99559A23.20912,23.20912,0,0,1,69.5725,72.30586c-1.00117,1.6086-2.3691,1.7929-4.26485,1.47192a13.73078,13.73078,0,0,1-3.67531-1.67219c-.59076-.28417-1.24048-.28841-1.7879-.88045-.73622-.79624-1.40632-.65185-2.23721.16861-2.54328,2.51137-3.71841,5.8047-5.21383,8.94768-.93741,1.97021-1.61448,4.13868-3.03016,5.79921-1.23795,1.45207-2.076,3.32121-3.94987,4.16951a.43132.43132,0,0,0-.24466.59914.66386.66386,0,0,0,.72932.39749,21.16439,21.16439,0,0,1,3.41144-.271c.05825.00287.15449-.15392.16571-.14525.93267.72051,1.51819.51017,1.79717-.54839,1.20025.68192,2.13914-.13377,3.186-.33492.071-.01365.2085.02074.2336.07006.46861.921,1.577.21118,2.177.98272a.69171.69171,0,0,0,1.04619-.668c-.01265-.40219-.48216-1.19524.34142-1.13948.78873.0534.3678.70354.3559,1.15466-.016.60736-.16291,1.44559.98122.98747a.445.445,0,0,1,.52481.41634c-.00226.2599-.24241.29-.46013.23606-.53438-.13249-1.29792.60353-1.58734-.51332a.47525.47525,0,0,0-.32493-.015,3.87383,3.87383,0,0,1-3.7263-.27839c-1.0672-.56685-1.52453.68206-2.41324.61738.01632.24919.01136.53279.34566.58028.405.05754.57056.22423.26848.53362-.22377.22916-.63859.43389-.82828.01253-.6269-1.39252-1.93039-1.24687-2.845-1.14039-1.726.20091-3.48825.24514-5.19642.61546a4.16417,4.16417,0,0,1-2.23372-.52936c-.4457-.19434-.66662-.28174-1.062.03554-1.07626.86363-2.2463.58271-3.19591-.82034-.06887,1.15678-1.17825,1.08836-1.71818,1.71243-.2971.34339-.71357-.1623-.90107-.58058-.264-.589-.54162-1.1776-1.25011-1.34839-.42313-.102-.96546-.41112-1.1902.14219-.22573.55575.57085.40879.83669.90284-.9569-.10281-1.67274.87819-2.65282-.21771-.3041-.34-1.22462-.13513-1.93554-.18479,1.216-1.58321,1.598-1.58691,2.81221-.06536.406-.33285-.60569-1.10226.28354-1.24123.484-.07564,1.06354.08918,1.42644-.00948.93769-.25492,2.13058.41019,2.8997-.59838.37408.19654.52109,1.90759,1.29988.30962.28688-.58864.6228-.108.78935.33276.26416.69906.45924,1.51167,1.39315.61983.38013-.363.53875.42939.91032.40055,1.03163-2.04975-1.06257-3.23979-1.72028-4.78036-.76626-1.79484-2.41961-3.17959-3.18366-5.04977-1.92618-4.71481-3.60341-9.4884-3.3968-14.54112a69.61526,69.61526,0,0,1,1.2842-10.07173,33.12034,33.12034,0,0,0,.70457-8.78739c-.07425-.94353-.56219-1.32564-1.40559-1.10223-1.98663.52625-3.95058-.30372-5.916-.4993-2.09025-.208-2.72214-1.45137-2.474-3.49294.3183-2.61934,1.488-4.832,2.48859-7.15361a71.48562,71.48562,0,0,0,2.49512-6.906,11.32617,11.32617,0,0,1,1.70908-3.55506c1.41-1.80766,3.94238-2.29389,5.74562.33519,2.4022,3.50235,4.254,7.31345,6.52492,10.88509a18.44953,18.44953,0,0,1,2.18833,4.54672,4.92451,4.92451,0,0,1,.28168,1.21928c.02521.77688.348,1.52291-1.05705,1.69248-1.38168.16675-2.621,1.13341-3.9,1.78973a8.79612,8.79612,0,0,1-3.29776,1.127c-.45762.03766-.71383.25765-.62834.69466.599,3.06221-.22969,5.90052-.8672,8.73287a33.60523,33.60523,0,0,0,1.65473,19.535,59.44749,59.44749,0,0,0,2.52688,6.85049,17.77207,17.77207,0,0,0,1.40916,2.2702,29.2393,29.2393,0,0,0-.04377-3.2459c-.007-4.019.76768-7.88814,1.26445-11.81347A51.02317,51.02317,0,0,1,45.216,58.51606a71.27583,71.27583,0,0,1,5.38337-11.776,2.6916,2.6916,0,0,1-.46844,1.962,57.73963,57.73963,0,0,0-3.42745,7.42322,59.21721,59.21721,0,0,0-3.87912,14.10957c-.63119,5.14863-1.78068,10.20686-1.17851,15.53425.04531.4008.29,1.06453-.22452,1.20024-.68453.18054-.36406-.71677-.75641-.95228-.09957-.05976-.12554-.113-.17773.03552l.62473,2.87266c-.34831-.08048-.53048-.2494-.53031-.40539.00211-1.92521-1.30559-3.46424-2.09382-5.05453-1.531-3.08883-2.49081-6.32758-3.7436-9.48086-1.85638-4.67248-1.3559-9.42091-1.03228-14.13278.109-1.58636.39137-3.14835.51523-4.73318a14.4654,14.4654,0,0,1,.70321-4.185,7.832,7.832,0,0,0,.34264-2.88686c.00778-.44788.04328-.98465-.65907-.97561-.68339.00881-.43086.56366-.41338.92634a31.92691,31.92691,0,0,1-.08933,5.43731c-.49327,4.0052-1.40361,7.91134-1.75613,11.96128a31.16423,31.16423,0,0,0,1.632,11.65677c1.28759,4.34528,3.98554,7.99884,6.29251,11.84843.49691.82918,1.13057,1.33229,2.02175,1.13067.931-.21064.83622-1.10482.93714-1.87875a48.20639,48.20639,0,0,0-.04443-4.933,87.24377,87.24377,0,0,1,1.77366-16.28525,32.63817,32.63817,0,0,1,1.1509-5.21285c1.04975-2.60042,1.60586-5.39727,2.80246-7.92375A22.35739,22.35739,0,0,1,51.16533,49.459a23.38044,23.38044,0,0,0,3.073-5.25417c1.08247-2.59166,1.93413-5.28078,3.03961-7.85847a12.54492,12.54492,0,0,0,.67266-1.943A108.77545,108.77545,0,0,1,61.493,23.60668c.12158-.33868.18149-.79007.63112-.77735.572.01618.39509-.377.41988-.66586.01779-.20727-.00595-.41139-.27431-.49122a.68334.68334,0,0,0-.85708.23233c-.39613.53348-.84783,1.02386-1.27838,1.53467-.21618-.38254.1442-.59411.21037-.89453.03995-.18135.21193-.37133-.10325-.50733-.11422-.04929-.18479-.34543.00155-.57051-.92882.32585-1.96468.2593-1.68211,1.60433-.50621-.04189-.47777-1.03686-1.10379-.57052-.515.38361-.10612.6635.21884.95394.20968.18741.11923.37242-.06175.50671-.279.20706-.36727.0664-.51252-.22757a4.11837,4.11837,0,0,0-.92322-1.42225.54849.54849,0,0,1-.028-.89769c.40553-.28829.57992.13911.66017.42087.10822.38.26529.57237.565.2966.33744-.31054.1957-.79392.01289-1.136-.42225-.79006-1.17889-.38123-1.78612-.483-.32184-.05392-.81031.11759-.65687.489.49708,1.20313.45385,2.69692,1.89649,3.458-.33069.28546-.57051.66863-1.05347.74956a4.85265,4.85265,0,0,0-.85063-2.40883.74585.74585,0,0,0-.81437-.00792c-.21414.09029-.61175.14431-.47262.415a12.01515,12.01515,0,0,0,.983,2.13069c.16247.20812.69136-.12176.54015.37573a.59409.59409,0,0,1-.79079.38436,1.97789,1.97789,0,0,0-.91749-1.66207c-.07152-.05142-.42507.12515-.48087.27031-.21917.57012.16408,1.00119.51886,1.42239a3.0042,3.0042,0,0,1-.6494-.32291c-.23506-.19608-.23871-.67276-.69773-.60191-.62735.09684.02232.70692-.28307.94608-.59679-.46158-.51919-.42626-.84258.3904-.19765.49913.12946.674.34.92809.29749.359.47137.04084.68151-.13a6.12327,6.12327,0,0,0,1.40182-1.249c.32229-.01109.648-.01956.97362-.028a5.22352,5.22352,0,0,1-1.46592,1.16754c-.44895.32946-1.19566.67676-.57372,1.55083.74679,1.04953,1.21575,1.1378,1.89227.15276a22.67838,22.67838,0,0,1,2.67679-2.58988c-.70388,1.06571-1.53073,2.012-2.28966,3.012-.22812.30059-.66823.80174-.02106,1.14.68539.3583,1.0672,1.09705,1.83966,1.41319.49674-1.811,1.3284-3.42591,1.92023-5.15488.3898-1.13877.37752-2.70337,1.75416-3.34259-.32416.99015-.58033,2.0133-.987,2.96341a37.74021,37.74021,0,0,0-2.11786,5.63479,31.05779,31.05779,0,0,1-2.11055,5.89672c-.81417,1.6914-1.65062,3.36737-2.38712,5.10447a10.85332,10.85332,0,0,1-2.0012,3.76989c.126-1.9889,1.38509-3.48136,1.99976-5.26.80687-2.33478,2.27384-4.33559,3.03156-6.72243.58905-1.85554.56791-2.74966-1.19371-3.72509-2.39884-1.32828-3.65924-3.46428-4.818-5.74021a3.11543,3.11543,0,0,1-.38072-1.31993.64517.64517,0,0,0-.15927-.44712c-.69469-.50058-.715-.50044-.2763-1.13347a14.00052,14.00052,0,0,1,1.878-2.59424c.00821.58258-.06492,1.20837.87343.77876a9.37836,9.37836,0,0,1,3.32685-.60922,23.9607,23.9607,0,0,1,6.4002.47781c1.93468.40342,3.88911.82328,5.82806,1.26917,2.864.65861,5.57291,1.56867,7.59691,4.03358.99381-2.6374,1.08067-9.45776-.00109-11.20507a11.59159,11.59159,0,0,1,.06062,4.67895c-.26322,1.429-.064,2.9704-.76577,4.31163.57312-4.4719,1.07377-8.92958-.333-13.43147A39.59979,39.59979,0,0,1,71.33288,22.1307a1.19425,1.19425,0,0,1-.035-1.30993,31.37575,31.37575,0,0,0,1.56485-7.11012c.1728-1.17038-.15664-2.45765.00055-3.536.25818-1.77129-.88053-1.85374-1.87511-2.32392a3.15087,3.15087,0,0,0-1.95333-.26933c-2.33645.498-4.681,1.01651-6.60056,2.49582a27.20132,27.20132,0,0,1-2.3152,1.70064,29.7534,29.7534,0,0,0-8.196,7.02476C51.57913,19.24709,51.29037,19.81918,50.60122,19.87375ZM71.35166,57.46281c-.25263,1.09456-1.10216,1.94954-1.09513,3.14366a16.4378,16.4378,0,0,1-1.02571,5.2368,1.82888,1.82888,0,0,0-.19369,1.06246c.06176.246.13488.51949.42785.54908.27.02727.24438-.24888.31507-.4295a23.27819,23.27819,0,0,0,1.26456-3.25718,13.58719,13.58719,0,0,0,.30653-6.30363,6.7284,6.7284,0,0,0-5.34493-2.24312c-3.56213.18735-6.7924,1.39808-10.08787,2.423a.82573.82573,0,0,0-.69957.72528,9.66442,9.66442,0,0,1,6.15082,2.964,9.31652,9.31652,0,0,0,2.65828,1.704c.3555.16042,1.04243-.22218,1.06811.75059.01062.40206.79331.51575,1.16237-.0204.4948-.71882,1.02457-1.41444,1.481-2.15838.61838-1.00782,1.18151-2.052,1.76833-3.08059a13.11629,13.11629,0,0,1-1.67053,6.2673c-.24939.42682-.5339.78088.12609,1.16934.81477.47956.81382-.29239.9507-.63649a22.82121,22.82121,0,0,0,1.11094-4.95848C70.19313,59.29494,70.15983,58.04405,71.35166,57.46281Zm-34.56585-29.063a15.37578,15.37578,0,0,0-2.02056-2.82515,2.09573,2.09573,0,0,0-3.17065-.43019,4.97455,4.97455,0,0,0-1.0967,1.55071c-1.62247,4.05659-3.251,8.11087-4.93783,12.13719a19.90009,19.90009,0,0,0-1.206,4.43151c-.23016,1.36808.39777,2.12735,1.80636,2.27831,1.11817.11985,1.31215-.75868,1.59829-1.462.5292-1.30074.95707-2.64841,1.4416-3.97035.08824-.24074.12184-.64017.52439-.49816.34039.12009.33626.47236.28112.75611a7.72252,7.72252,0,0,0-.26238.93294c-.07786,1.23944-.90945,2.31351-.51776,3.66027.12664.43545.07514,1.04221.55971,1.16564.46351.11808.557-.46157.7063-.81432.1-.23631.21286-.44718.48848-.45974.32415-.01476.44339.27873.47544.50153a.89373.89373,0,0,0,1.172.82148c1.06866-.19334,2.31052.6136,3.24134-.35064.1365-.1414.23821-.034.37749.10651.72456.73111,1.36463.13376,2.008-.05125.76564-.22016.12568-.84261.17328-1.26321a5.27561,5.27561,0,0,0-.22908-1.46839c-.49449-2.60952-.64891-5.283-2.05887-7.71731a1.80222,1.80222,0,0,1-.29016-1.41067,23.14827,23.14827,0,0,1,2.86966,10.23867c.03331.42745-.24494,1.16724.57915,1.08334.54121-.05511,1.261-.08773,1.0012-1.19391-1.13483-4.83289-2.27493-9.65109-4.45889-14.22193a22.53039,22.53039,0,0,0-1.86893-3.74563c-.27167-.37342-1.07983-.83888-.58274-1.15235.62118-.39171.83842.55866,1.15667.98892a9.00332,9.00332,0,0,1,.52508,1.01612A2.56182,2.56182,0,0,0,36.78581,28.39983ZM74.221,27.43921c.15683-.99067-.51969-1.66446-1.25387-2.276-2.71972-2.26557-6.02591-2.61937-9.20914-3.36333a.58947.58947,0,0,0-.70924.33551c-.109.2248-.20609.46538.04456.67266,1.08529.89746,1.48643,2.2327,2.26768,3.32276,1.21188,1.69094,2.07551,3.59733,3.42238,5.20139.2857.34026.51418.81152,1.09656.71045C72.27815,31.62639,74.25321,29.3271,74.221,27.43921Zm-19.94509,37.857c-.82293-.20055-.77648-1.28327-1.75551-1.59632.67,2.14535,2.149,3.49074,3.53238,4.89662a.31307.31307,0,0,0,.4499.02205c1.21817-1.23289,2.7573-2.16568,3.7451-3.96579l-2.05946.56-.05967-.15132,1.328-.82153c-1.10045-.11192-2.12907-.7797-2.853-.22207-.41235.3176-.38914.38879-.80294.05374-.83149-.67329-.86009-.63663-.95967.47072-.32547-.19217-.46377-.89515-.82337-.64819C53.40448,64.31516,54.41026,64.76192,54.27586,65.29621Zm-17.11722-33.827a103.82008,103.82008,0,0,1,3.50086,12.1309c.1034.444-.00757,1.08452.86139.77666.57524-.2038.9843-.23819.68433-1.10425a71.94,71.94,0,0,0-3.13544-7.98914A20.06661,20.06661,0,0,0,37.15864,31.46925Zm6.357,10.902a71.48116,71.48116,0,0,0-5.86193-12.2888c-.04173.48139-.09485.60809-.05438.69764,1.41655,3.13375,2.73776,6.3059,4.31241,9.37636a1.96062,1.96062,0,0,1,.3402,1.72649,1.4318,1.4318,0,0,0,.75043,1.69106c.55611.18444.99019-.41171,1.30074-.89028a.94648.94648,0,0,0-.07-1.05136c-.46028-.79937-.90181-1.60869-1.351-2.41395C42.79445,40.34492,43.44538,41.28048,43.51568,42.3712ZM72.08411,59.33135c-.4397,1.37836-.1284,2.75992-.4173,4.00254-.29851,1.284-.94342,2.46071-1.36236,3.71388a2.74514,2.74514,0,0,0-.04605,2.47737C71.79492,67.18616,72.91542,60.99618,72.08411,59.33135ZM58.45438,60.61793c-.35016,1.3483.63553,1.83728,1.32364,2.53635-1.34913-.21623-1.74409-.58384-1.93854-2.11466-.08262-.65048-.4818-.7049-.88285-.88442-.23234-.104-.3666-.04442-.429.21781-.14584.61333,1.07393,3.02217,1.705,3.23384a5.51541,5.51541,0,0,0,2.62164.32942C59.74183,63.00341,59.43272,61.71386,58.45438,60.61793ZM34.28812,68.31934c-.16055,3.47092,1.29906,6.58,2.82407,9.6745A80.21558,80.21558,0,0,1,34.28812,68.31934Zm20.72411-8.20112a7.575,7.575,0,0,0,.1494,1.20985.94523.94523,0,0,0,1.09946.64389c.30916-.07083-.01232-.54534-.06605-.8465-.1752-.982-.6474-1.492-1.70062-1.3494-.33358.04518-.84855-.45714-.82062.35473.01673.4868.109,1.05787.57737,1.151.68826.1368.26193-.58346.42956-.875C54.71675,60.34416,54.79261,60.30634,55.01223,60.11822Zm13.75253.87278c-.82823,1.13238-1.51571,2.09495-2.2301,3.03623-.23507.30973-.26709.54607.07543.83118a.532.532,0,0,0,.90841-.18371A8.12348,8.12348,0,0,0,68.76476,60.991ZM53.19438,21.29255a1.39675,1.39675,0,0,1,.147.27719c.08664.4067-.111,1.03908.63466.96441.49718-.04978.747-.35761.5372-.96552-.1934-.56035-.30553-1.015-1.0714-.83911-1.50187.34488-1.65529.75657-.714,2.22487C53.09323,22.49893,52.62105,21.78947,53.19438,21.29255Zm-18.34412,34.691c.09693-1.67421,1.101-3.1182.78912-5.17115A13.27126,13.27126,0,0,0,34.85026,55.98359ZM59.81252,61.4114a2.35287,2.35287,0,0,0,.9155,1.719.62925.62925,0,0,0,1.0377-.06609c.305-.41371-.13731-.54189-.36754-.73619A3.11364,3.11364,0,0,0,59.81252,61.4114ZM43.95577,81.44313c.17027-1.38136.67777-2.7039.35348-4.15546C44.17763,78.67559,43.38863,79.94144,43.95577,81.44313ZM56.66005,63.55192c.11289-.18754.75146.23022.58968-.35875A1.131,1.131,0,0,0,56.111,62.2138c-.24774.01516-.65032-.03931-.507.43441C55.75083,63.13366,55.9048,63.644,56.66005,63.55192Zm-1.50383-.69329a1.20048,1.20048,0,0,0-.88376-1.25551c-.30881-.07779-.51169.165-.33853.41791.335.48921.29639,1.27863,1.0714,1.4219C55.23819,63.486,55.37115,63.32213,55.15622,62.85863ZM37.55271,79.823c.01594.98685.83321,1.69529.99646,2.63095C38.93144,81.32875,38.08928,80.629,37.55271,79.823Z"/></svg>