<?xml version="1.0" encoding="UTF-8"?>
<svg id="Layer_2" data-name="Layer 2" xmlns="http://www.w3.org/2000/svg" viewBox="0 0 59.47 75.19">
  <defs>
    <style>
      .cls-1 {
        fill: #010101;
      }
    </style>
  </defs>
  <g id="Layer_1-2" data-name="Layer 1">
    <path class="cls-1" d="M59.33,49.56c-.42-.31-.93-.51-1.47-.63-.83-.19-1.66-.37-2.49-.54-1.16-.24-2.34-.37-3.53-.37-.68,0-2.11.47-2.8.13,1-2.43,3.42-4.63,5.71-5.76.71-.35,1.45-.64,2.09-1.11.88-.64,1.77-1.29,2.26-2.35-.43-1.27-.96-2.48-1.51-3.64-.38-.14-.66,0-.95.07-1.38.35-2.73.83-4.08,1.28l-1.42.44c.05-.3,1.72-.89,1.91-1.07.58-.55,1.08-1.16,1.58-1.76.2-.24.39-.47.42-.79.2-2.34.11-4.66-.43-6.99-2.9-.73-7.38.02-10.24.37-.42-.7,1.04-3.86,1.74-4.24,1.2-.65,1.95-1.71,2.71-2.77.25-.35.44-.74.35-1.19-.24-1.22-.5-2.43-.75-3.62-.51-.28-.96-.53-1.41-.77-.27-.15-.58-.27-.88-.18-1.23.33-2.52.45-3.63,1.14-1,.61-1.85,1.38-2.55,2.32-.12.16-.19.4-.5.37-.11-.88.12-1.75.14-2.62,0-.11.07-.24.14-.33.58-.74,1.06-1.57,1.89-2.08.51-.31.85-.77,1.13-1.29.55-1.03.94-2.11,1.14-3.26.19-1.09.17-2.18-.2-3.24-.23-.68-.65-1.08-1.4-1.07-.52.01-1.04-.03-1.55.02-1.08.11-2.06.45-2.79,1.35-.51.64-1.11,1.21-1.58,1.89-1.27,1.86-2.74,3.57-3.81,5.57-.04.07-.72,1.27-.78,1.32-.28-.1.08-1.4-.07-1.77.2-.5.16-1.12.24-1.72.29-2.14.44-4.29.3-6.46-.08-1.3-.62-2.4-1.41-3.39-.37-.46-.83-.67-1.43-.63-.69.05-1.38-.04-2.08-.14-1.46-.2-2.2.23-2.51,1.58-.24,1.04-.39,2.09-.38,3.16,0,2.16-.07,4.32.56,6.4-.18.82.97,5.03.5,5.76-.83-.51-3.92-1.78-4.77-2.01-.89-.24-1.82-.24-2.68-.5-.92-.28-1.73-.11-2.55.29-.5.24-.96.53-1.38.88-1.01.84-1.98,1.73-2.79,2.75-1.02,1.29-1.37,2.8-1.26,4.39.38.38.8.45,1.22.54.6.12,1.19.25,1.79.37,1,.2,1.79.76,2.49,1.45.81.8,2.27,2.27,1.67,3.15-.06.02-1.5-.38-1.55-.38-.27,0-.55.03-.82.03-2.02-.04-4,.22-5.93.8-1.28.38-2.48.82-3.39,1.96-.81,1.03-1.37,2.13-1.79,3.34-.11.32-.12.66,0,.99.27.36.66.54,1.05.7.85.35,1.75.53,2.66.57.92.04,1.81.46,2.75.17.32.54,2.16,1.39,2.24,1.96-.28.12-2.02-.3-2.19-.33-.8-.12-1.49-.52-2.21-.84-.9-.4-1.69-.27-2.51.2-1.6.92-3,2.07-4.22,3.45-.4.45-.81.9-.94,1.58.41.47.85.94,1.25,1.43.39.47.78.93,1.25,1.32.48.4,2.4.27,2.93.88-1.24.28-3.65.84-4.64,1.47-.48,1.2-1.02,2.35-1.19,3.64.39.28.74.52,1.08.77.24.18.49.36.62.65.76,1.76,2.1,3.04,3.54,4.22.72.59,1.53.98,2.47,1.09.23.03,2.42.39,2.54.39-.54,2.4-2.51,4.72-2.21,7.19.11.86.45,1.49,1.22,1.89.67.35,1.35.71,1.93,1.2,1.43,1.19,3.07,2.08,4.65,3.04.93.56,1.96.78,2.97.77.54-.45.64-1.04.86-1.57.31-.76.94-1.13,1.75-1.06.54,1.38,1.02,2.77,1.75,4.02.46.29.96.34,1.42.47.38.11.78.14,1.13.34,1.38.77,2.82.71,4.23.2,1.51-.55,2.99-1.18,4.47-1.82.81-.35,1.54-.84,2.24-1.33.06-.21-.05-.42.15-.55.33-.18.68-.2,1.13-.16.55.76,1.41.99,2.35,1.09.54.06,1.1.09,1.62.24.8.24,1.4-.02,2-.54,1.7-1.47,3.45-2.89,5.13-4.39.92-.82,1.55-1.88,1.78-3.11.13-.68.42-1.26.74-1.84.11-.21.34-.36.35-.62-.21-.81-1.63-1.52-1.25-2.33.27-.4,1.52-.44,1.82-.49,1.69-.25,3.16-.99,4.61-1.82.42-.24.68-.56.84-1.02.63-1.72,1.08-3.48,1.45-5.27.1-.41.15-.84-.05-1.29ZM51.42,40.08c1.34-.63,2.81-.93,4.09-1.63.26.24.23.45.12.64-.27.45-.6.88-1.12,1.02-1.73.47-3.21,1.41-4.71,2.33-.27.17-.5.44-.86.4.19-.34.37-.68.57-1.01.46-.76,1.09-1.37,1.91-1.75ZM44.55,31.28c.26-.79.87-1.09,1.62-1.28,1.59-.4,5.04-1.57,6.61-.51.86,1.2-.02,3.41-1.28,3.88-.65.25-1.3.51-1.98.67-.73.17-1.44.07-2.19-.29-2.6,2.51-4.83,5.32-7.16,8.09-.31-.24-.26-.49-.17-.7.45-1.15.77-2.35,1.36-3.45.44-.82.75-1.72,1.13-2.57.5-1.14,1.06-2.25,1.77-3.28.1-.18.22-.37.29-.56ZM48.88,42.9s-.06.09-.11.11c.04-.04.07-.08.11-.11ZM43.85,45.11c-.35.67-.74,1.32-1.11,1.98-.16.28-.37.46-.7.53-1.16.24-2.31.52-3.47.76-1.22.24-2.46.38-3.71.38-.67,0-1.14.28-1.58.76-.79.87-1.25,1.93-1.75,2.97-.19.39-.32.86-.88.98-.3-.29-.21-.62-.13-.94.33-1.22,1.04-2.28,1.45-3.48.03-.09.06-.18.09-.28.36-1.11.62-2.26,1.16-3.31.53-1.03,1.34-1.6,2.56-1.53,1.16.06,2.31.19,3.42.47,1.37.34,2.7.38,4.03-.11.19-.07.4-.15.65-.09.3.31.12.63-.03.91ZM44.1,16.76c.9-.65,1.8-.55,2.66.25.02.8-.3,1.51-.8,2.14-1.08,1.32-2.28,2.53-3.48,3.65-.48.11-.82-.06-1.19.08-.28.33-.41.77-.55,1.2-.37,1.06-.66,2.15-.94,3.24-.14.53-.39,1.94-1,2.19-.26-.09-.11-1.05-.07-1.23.12-.7-.02-1.4-.07-2.09-.05-.58-.09-1.13.12-1.7.12-.32.04-.72.03-1.08-.02-.38.02-.74.24-1.05,1.46-2.07,2.96-4.1,5.05-5.6ZM35.9,11.71c.06-.14.09-.29.17-.42.94-1.42,2.05-2.7,3.41-3.73.17-.13.37-.21.68-.15.99.79,1,2.23-.12,2.77-1.72.83-2.47,2.46-3.53,3.84-.35.46-.3,1.1-.34,1.67-.03.43-.07.85-.19,1.26-.06.21-.15.4-.4.41-.16-.03-.21-.15-.22-.27-.04-1.81-.2-3.64.54-5.38ZM31.55,19.63c1.23.12,2.13.81,2.85,1.77.32.43.27.76-.19,1.7-.77.11-1.52.21-2.28.32-.46.63-.83,1.32-1.25,1.99-.42.66-.9,2.56-1.32,3.16,0-.58-.7-1.25-.7-1.4,0-1.72-.84-2.72-1.48-4.22-.28-.66-.35-3.16.77-3.3,1.18-.14,2.39-.13,3.6-.02ZM27.64,4.06c.07-.14.15-.27.34-.34.31-.06.52.19.74.38.32.27.6.58,1,.77.47.22.76,1.24.54,1.79-.38.95-.46,1.95-.46,2.94,0,1.7.07,3.85-.41,5.5-.03.11-.8,1.75-.96,1.47-.46-.79-.46-2.45-.49-3.27-.05-1.52-.58-2.97-.87-4.45-.33-1.65-.16-3.26.57-4.79ZM24.97,33.76c.08-.16.27-.27.33-.43.3-.9,1.05-1.2,1.83-1.49,1.06-.38,2.15-.65,3.26-.84,1.25-.21,2.51-.4,3.78-.4.27,0,.55-.03.87.12.25.45.64.85,1.08,1.23.48.42.8,1,1.01,1.61.43,1.27-.5,2.36-1.81,2.14-.51-.09-1.01-.2-1.51-.34-.66-.18-1.32-.19-2.06-.08-.51.73-1.03,1.52-1.59,2.27-.54.74-.81,1.67-1.65,2.41-.56-1.41-1.35-2.56-1.74-3.92-.71-.29-1.52.14-2.26-.34-.19-.71.14-1.33.46-1.94ZM26.47,50.98c-.08.58-.17,1.11-.85,1.32-.51-.52-.75-1.18-1.07-1.79-.4-.78-.61-1.65-1.19-2.35-.41-.49-.8-.91-1.5-.87-.19,0-.36-.06-.51-.18-.68-.55-1.51-.76-2.32-1-.84-.25-1.68-.52-2.46-.95-.47-.27-.95-.53-1.26-1.1.16-.99.54-1.92,1.25-2.65,1.6-.11,5.36,1.4,7.47,2.91,1.18,1.43,1.47,2.98,1.74,4.55.13.73.25,1.48.7,2.11ZM17.21,21.81c-1.4-.56-2.04-1.2-2.65-2.23.36-1.08,1.29-1.7,2.08-2.51,1.41,1.03,2.98,1.53,4.43,2.26.52.26.85.65,1.03,1.2.2.6.46,1.19.69,1.78.22.57,1.32,2.49,1.32,3.23-1.6,0-3.35-1.46-4.47-2.43-.7-.6-1.58-.97-2.43-1.3ZM10.55,34.62c-1.01.25-2.11.23-3.17.03-.42-.08-.94-.1-1.03-.76.5-.63,1.13-1.13,1.87-1.5.28-.14.57-.2.88-.15.73.11,1.45-.02,2.17-.1,1.23-.14,2.47-.32,3.71-.05.42.09.85.18,1.18.45,1.24,1.02,2.5,2.02,3.35,3.44.25.42.31.85.2,1.31-.04.16-.13.27-.44.35-.64-.66-1.25-1.36-1.94-1.99-.46-.42-.94-.98-1.45-1.32-.82-.54-.5-.41-1.53-.28-1.25.16-2.58.27-3.8.57ZM5.63,41.73c-.36.08-.72.06-1.11-.19.68-1.02,1.77-1.98,2.98-2.3,1.3-.34,1.93.42,3.07.95,1.43.66,1.9,1.78,1.73,3.21,0,.35.34.47.37.76-.06.1-.16.1-.24.06-.85-.45-1.81-.67-2.57-1.34-.36-.32-.88-.4-1.35-.51-.74-.16-1.5-.23-2.19-.6-.2-.13-.44-.09-.69-.04ZM10.26,54.11c-.41-.11-.85-.13-1.25.07-.77.37-1.53.2-2.18-.17-1.12-.63-2.02-1.52-2.71-2.64.23-.72.42-1.32.62-1.92.21-.61.62-.95,1.29-.95,1.64,0,3.28-.02,4.92-.02.99,0,1.7.43,2.29,1.24,1.04,1.43,1.87,2.98,2.79,4.48.38.61.11,1.53-.62,2.24-.75-.31-1.49-.72-2.2-1.16-.92-.59-1.92-.91-2.95-1.17ZM18.72,68.21c-1.58.9-3.81-.55-5.07-1.49-1.62-1.21-2.27-3.38-1.68-5.3.13-.43.48-.69.64-1.16.36.07.62.12.88.17,1.33,1.95,2.74,4.09,5.08,4.9.6.21,1.19.44,1.78.68.3.12.64.22.83.64-.54.72-1.69,1.12-2.46,1.56ZM22.9,60.8c-.83-.29-1.52-.76-2.01-1.49-.22-.33-.49-.61-.79-.78-.14-.28-.11-.51.03-.66.52-.56.69-1.27.93-1.96.06-.17.12-.35.2-.51.32-.61.65-.73,1.25-.41.29.16.61.32.82.57.93,1.09,2.2,1.32,3.5,1.51.63.09,1.26.2,1.9.19.21,0,.43,0,.69.24.16.93-.17,1.81-.78,2.6-.31.41-.7.76-1.06,1.13-.32.32-.7.47-1.16.39-1.18-.2-2.37-.41-3.52-.82ZM34.8,68.2c-.6.64-1.22,1.27-1.82,1.91-.16.17-.36.24-.55.3-1.58.48-4.34,1.14-5.87.11-.65-.44-.99-1.65-1.69-1.97-.15-.52.07-.83.17-1.3.58.3,1.18.48,1.6.86.67.6,1.41.62,2.2.57,1.73-.12,3.41-.55,5.09-.93.4-.09.8-.25,1.23-.19,0,.32-.2.47-.36.64ZM38.17,60.54c-1.39,1.02-2.91,1.31-4.56.7-.35-.13-.69-.2-1.07-.12-.24.05-.48.03-.69-.14-.54-1.14.03-2.67,1.18-3.08.68-.24,1.23-.65,1.74-1.12.51-.47,1.07-.81,1.76-.87,1.64-.16,3.08-.85,4.49-1.63.33-.18.64-.49,1.15-.24.14.74-.09,1.36-.41,1.95-.29.54-.52,1.09-.55,1.57-.74,1.39-1.92,2.16-3.04,2.98ZM48.52,62.54c-.46.68-.91,1.35-1.42,1.99-.23.29-.47.57-.6.9-.52,1.36-1.66,2.13-2.71,3-.36.3-.79.51-1.26.44-1.22-.18-2.43-.41-3.65-.74.56-.2,1.11-.41,1.67-.59.33-.11.59-.27.81-.55.57-.71,1.16-1.4,1.8-2.16-.07-.95.48-1.55,1.19-2.01.87-.57,1.84-.95,2.83-1.21.49-.13,1.05-.17,1.53.06.18.37-.03.62-.19.87ZM54.42,54.54c-.62.21-1.2.59-1.74,1.04-.56.46-1.21.7-1.94.66-2.01-.1-3.63.81-5.14,1.99-.26.2-.48.47-.88.41-.19-.42.04-.76.23-1.1,1.32-2.39,3.24-4.22,5.48-5.73,1.42-.95,2.79-.84,4.07.29.36.31.84.54.81,1.24-.28.37-.57.76-.89,1.2Z"/>
  </g>
</svg>